<svg width="76" height="45" viewBox="0 0 76 45" fill="none" xmlns="http://www.w3.org/2000/svg">
<g id="freepik  Box  inject 2">
<path id="Vector" d="M68.5252 0.197632H6.77722V44.037H68.5252V0.197632Z" fill="#C66228"/>
<path id="Vector_2" d="M6.77722 44.037H27.8025L27.8025 0.197647H6.77722L6.77722 44.037Z" fill="#E68C40"/>
<path id="Vector_3" d="M8.22888 40.9892C9.79294 37.8702 11.3363 34.7444 12.8591 31.6117L17.4206 22.1792L21.9201 12.7055C23.4199 9.54527 24.8991 6.37358 26.3577 3.19043C24.8028 6.30478 23.2594 9.4329 21.7274 12.5748L17.166 22.0004L12.6665 31.4741C11.1758 34.6527 9.69662 37.8244 8.22888 40.9892Z" fill="#E4E9ED"/>
<path id="Vector_4" d="M8.22888 3.2179C9.69203 6.39646 11.1712 9.56813 12.6665 12.7329L17.166 22.2067L21.7274 31.6392C23.2548 34.7765 24.7982 37.9023 26.3577 41.0166C24.8945 37.8381 23.4153 34.6664 21.9201 31.5016L17.4206 22.0278L12.8591 12.6022C11.3317 9.46034 9.78835 6.33224 8.22888 3.2179Z" fill="#E4E9ED"/>
<path id="Vector_5" d="M75.3021 9.98099H34.5863L27.8094 0.197632H68.5253L75.3021 9.98099Z" fill="#F0A350"/>
<path id="Vector_6" d="M21.0257 9.98099H0.00732422L6.78413 0.197632H27.8094L21.0257 9.98099Z" fill="#F0A350"/>
</g>
</svg>
