<svg width="65" height="82" viewBox="0 0 65 82" fill="none" xmlns="http://www.w3.org/2000/svg">
<g id="freepik  Bag  inject 2">
<path id="Vector" d="M0.325806 81.9675H64.9359L55.5103 16.1534H9.74453L0.325806 81.9675Z" fill="#364FD4"/>
<path id="Vector_2" opacity="0.1" d="M9.74453 16.1534L16.9273 81.9744H0.325806L9.74453 16.1534Z" fill="#263238"/>
<path id="Vector_3" d="M42.2869 20.7631C42.2869 20.708 41.1104 15.1903 39.8583 9.62434C38.8194 4.98033 34.2029 2.84066 30.3501 3.46675C28.9741 3.68691 24.5847 4.84274 25.1557 10.5325C25.8437 17.0685 26.3185 20.2264 26.3253 20.2608L23.5733 20.7012C23.5733 20.5704 23.0504 17.44 22.3831 10.8077C21.8533 5.51698 24.798 1.57473 29.8754 0.749134C34.9528 -0.0764675 41.1173 2.81314 42.514 9.00514C43.7661 14.5848 44.9357 20.1164 44.9426 20.1714L42.2869 20.7631Z" fill="#263238"/>
<path id="Vector_4" d="M16.0672 81.4652C14.6018 80.7772 13.1708 79.986 11.7397 79.2155L9.62068 78.0253C8.93268 77.6193 8.19651 77.2341 7.50163 76.8144H7.77684C6.66228 77.6056 5.57524 78.4243 4.44004 79.1948C3.30483 79.9654 2.19027 80.7428 1.03442 81.4721C2.07331 80.5846 3.14659 79.7315 4.21987 78.8921C5.29315 78.0528 6.39395 77.2409 7.48099 76.4085L7.60484 76.3121L7.75621 76.3947C8.44421 76.7869 9.13221 77.2134 9.86149 77.6193L11.9255 78.8646C13.3152 79.704 14.6912 80.5571 16.0672 81.4652Z" fill="#1E2126"/>
<path id="Vector_5" d="M7.61169 76.6011L7.70114 70.2922L7.84561 63.9901L8.21714 51.379L8.70561 38.7749L8.9877 32.4797L9.3317 26.1776L9.24225 32.4866L9.09778 38.7887L8.73314 51.3997L8.24466 64.0038L7.95569 70.299L7.61169 76.6011Z" fill="#1E2126"/>
<path id="Vector_6" d="M40.8903 20.481C40.8903 21.0253 41.0517 21.5574 41.3541 22.01C41.6565 22.4625 42.0863 22.8152 42.5891 23.0235C43.092 23.2318 43.6453 23.2863 44.1792 23.1802C44.713 23.074 45.2034 22.8119 45.5882 22.427C45.9731 22.0421 46.2352 21.5517 46.3414 21.0179C46.4476 20.4841 46.3931 19.9307 46.1848 19.4279C45.9765 18.925 45.6238 18.4952 45.1712 18.1928C44.7186 17.8904 44.1866 17.729 43.6423 17.729C42.9124 17.729 42.2124 18.0189 41.6963 18.535C41.1802 19.0511 40.8903 19.7511 40.8903 20.481Z" fill="#263238"/>
<path id="Vector_7" d="M22.4313 20.481C22.4313 21.0253 22.5927 21.5574 22.8951 22.01C23.1975 22.4625 23.6273 22.8152 24.1301 23.0235C24.633 23.2318 25.1863 23.2863 25.7202 23.1802C26.254 23.074 26.7444 22.8119 27.1292 22.427C27.5141 22.0421 27.7762 21.5517 27.8824 21.0179C27.9886 20.4841 27.9341 19.9307 27.7258 19.4279C27.5175 18.925 27.1648 18.4952 26.7122 18.1928C26.2596 17.8904 25.7276 17.729 25.1833 17.729C24.4534 17.729 23.7534 18.0189 23.2373 18.535C22.7212 19.0511 22.4313 19.7511 22.4313 20.481Z" fill="#263238"/>
</g>
</svg>
