<svg width="118" height="163" viewBox="0 0 118 163" fill="none" xmlns="http://www.w3.org/2000/svg">
<g id="freepik  Character  inject 2">
<path id="Vector" d="M50.453 162.279C51.829 162.746 92.5723 162.76 94.0859 161.804C94.2648 161.694 94.251 156.74 94.3749 152.97C94.5538 147.205 86.8069 121.542 86.8069 121.542L61.5298 122.774L68.5749 148.636C68.5749 148.636 62.7544 151.216 57.9522 153.452C55.8511 154.368 53.8064 155.409 51.829 156.568C50.3085 157.827 49.0701 161.811 50.453 162.279Z" fill="#F7A9A0"/>
<path id="Vector_2" d="M50.453 162.279C51.829 162.746 92.5723 162.76 94.0859 161.804C94.2648 161.694 94.3474 158.013 94.3749 152.97C84.2751 155.034 57.4018 158.274 56.645 156.149C56.3491 155.309 57.0027 154.353 57.9728 153.486C55.8717 154.402 53.8271 155.443 51.8496 156.603C50.3085 157.827 49.0701 161.811 50.453 162.279Z" fill="#37474F"/>
<path id="Vector_3" d="M110.804 81.3973C105.816 86.3578 98.8676 89.4882 92.9576 92.536C87.8733 95.1504 83.5665 97.7029 81.9496 101.287C80.5186 104.452 91.3408 135.419 91.3408 135.419L63.5869 142.065C63.5869 142.065 51.0447 107.837 54.182 93.1208C54.6911 90.7059 57.106 87.5755 60.5666 84.1768C72.8887 72.0061 98.4066 56.2028 98.4066 56.2028H114.1C114.1 56.2028 120.622 71.6346 110.804 81.3973Z" fill="#364FD4"/>
<path id="Vector_4" d="M112.345 59.6015C112.283 58.9135 112.215 58.1774 112.139 57.4687C112.142 57.4604 112.143 57.4515 112.142 57.4427C112.141 57.4338 112.138 57.4254 112.133 57.4182C112.127 57.4109 112.121 57.4049 112.113 57.4008C112.105 57.3967 112.096 57.3945 112.087 57.3945C112.078 57.3945 112.07 57.3967 112.062 57.4008C112.054 57.4049 112.047 57.4109 112.042 57.4182C112.037 57.4254 112.034 57.4338 112.033 57.4427C112.032 57.4515 112.033 57.4604 112.036 57.4687C112.682 63.1791 113.219 69.4468 110.529 74.7582C107.935 79.8631 102.741 82.9316 98.145 85.9863L89.7377 91.5385L85.534 94.2905C84.3806 95.018 83.2646 95.8034 82.1903 96.6434C81.2109 97.3976 80.3843 98.3316 79.7548 99.3954C79.1045 100.599 78.8245 101.968 78.9499 103.331C79.6379 112.522 87.7975 133.809 88.0108 134.6C88.0659 134.793 88.3823 134.697 88.3135 134.504C86.339 128.374 81.9495 117.786 79.5622 105.484C79.1542 103.906 79.1424 102.252 79.5278 100.668C79.961 99.4192 80.7156 98.3063 81.7156 97.4415C82.6879 96.5767 83.7303 95.7943 84.8323 95.1023L89.1116 92.2746L97.4433 86.7706C101.998 83.7641 107.13 80.8401 110.089 76.0791C113.15 71.1599 112.854 65.1812 112.345 59.6015Z" fill="#455A64"/>
<path id="Vector_5" d="M110.804 81.3973C105.816 86.3578 98.8675 89.4882 92.9576 92.536C82.5 89.784 69.3041 86.344 60.5665 84.163C72.8886 71.9923 98.4065 56.189 98.4065 56.189H114.1C114.1 56.189 120.622 71.6346 110.804 81.3973Z" fill="#37474F"/>
<path id="Vector_6" d="M0.793027 155.165C2.23095 155.447 42.5959 149.991 43.965 148.835C44.1301 148.704 43.7174 145.051 43.0637 140.042L50.2189 109.55L23.6346 112.811L15.2685 139.01C12.7148 141.368 9.97446 143.514 7.07447 145.43C5.11632 146.622 3.23022 147.929 1.42599 149.344C0.0499875 150.775 -0.638013 154.89 0.793027 155.165Z" fill="#F7A9A0"/>
<path id="Vector_7" d="M0.793105 155.165C2.23102 155.447 42.596 149.991 43.9651 148.835C44.1302 148.704 43.7174 145.051 43.0638 140.042C33.3424 143.482 7.13647 150.266 6.10447 148.264C5.69855 147.466 6.21455 146.434 7.06079 145.443C5.10264 146.636 3.21654 147.943 1.4123 149.358C0.0500647 150.775 -0.637935 154.89 0.793105 155.165Z" fill="#37474F"/>
<path id="Vector_8" d="M16.3488 129.95L44.8526 135.082L53.7484 102.333C54.5259 91.5178 56.5004 86.2684 62.8438 84.2938C73.6798 80.9364 100.161 93.3341 112.146 85.0162C121.881 78.26 114.114 56.1821 114.114 56.1821H85.9675C85.9675 56.1821 82.5688 60.3101 81.9358 62.7525C81.9358 62.7525 47.068 60.0624 39.2798 69.9559C28.8153 83.2136 16.3488 129.95 16.3488 129.95Z" fill="#364FD4"/>
<path id="Vector_9" d="M67.7148 83.8054C66.0378 83.6547 64.3473 83.7849 62.7131 84.1906C61.154 84.607 59.7004 85.3478 58.4475 86.3647C57.2391 87.3505 56.2601 88.5878 55.5785 89.9905C54.856 91.6747 54.3921 93.4584 54.2025 95.2812C54.0443 96.3338 53.948 97.3933 53.886 98.4597C53.8241 99.5261 53.7828 101.005 53.7828 101.9C53.7828 101.982 53.8929 101.989 53.8929 101.9C53.9078 100.944 53.986 99.9901 54.1268 99.0445C54.2507 98.1501 54.402 97.2557 54.5603 96.3682C54.8172 94.5898 55.2316 92.8376 55.7987 91.1325C56.3482 89.6746 57.1927 88.3459 58.2795 87.2295C59.3663 86.1131 60.6719 85.2332 62.1145 84.6447C62.9984 84.2881 63.9226 84.0409 64.8665 83.9086C65.81 83.8067 66.7599 83.7768 67.7079 83.8191C67.7079 83.8191 67.7355 83.8054 67.7148 83.8054Z" fill="#37474F"/>
<path id="Vector_10" d="M108.073 66.8598C107.095 66.6398 106.147 66.3002 105.252 65.8485C104.357 65.4419 103.545 64.8727 102.858 64.1697C102.337 63.488 101.99 62.69 101.847 61.8443C101.73 61.3902 101.668 60.9224 101.592 60.4683C101.516 60.0142 101.386 59.4569 101.351 58.9478C101.351 58.8859 101.234 58.8859 101.241 58.9478C101.482 60.8673 100.938 63.0139 102.376 64.6513C103.105 65.3987 103.994 65.9704 104.977 66.3232C105.948 66.7518 106.986 67.0057 108.045 67.0731C108.059 67.0749 108.074 67.0739 108.087 67.0702C108.101 67.0665 108.114 67.0602 108.125 67.0516C108.136 67.043 108.145 67.0322 108.152 67.02C108.16 67.0077 108.164 66.9942 108.166 66.9802C108.168 66.9662 108.167 66.952 108.163 66.9384C108.159 66.9247 108.153 66.912 108.144 66.9008C108.136 66.8896 108.125 66.8802 108.113 66.8732C108.1 66.8662 108.087 66.8616 108.073 66.8598Z" fill="#37474F"/>
<path id="Vector_11" d="M113.343 62.4292C113.088 61.3903 112.786 60.3652 112.449 59.3538C112.443 59.3421 112.433 59.333 112.42 59.328C112.408 59.3231 112.395 59.3226 112.382 59.3268C112.37 59.331 112.359 59.3394 112.352 59.3507C112.346 59.362 112.343 59.3753 112.345 59.3882C113.726 63.6019 114.332 68.0306 114.134 72.4602C114.111 74.5514 113.827 76.6315 113.288 78.6522C112.772 80.5855 111.52 82.24 109.8 83.2618C108.021 84.1873 106.092 84.7884 104.103 85.0369C101.873 85.3875 99.6176 85.5463 97.3607 85.5116C92.7668 85.3518 88.1848 84.943 83.6351 84.2869C79.2251 83.7709 74.8081 83.1586 70.3843 82.7596C66.7585 82.4362 62.8988 82.3949 59.5414 84.0049C56.3491 85.5391 54.2782 88.4631 52.9159 91.6485C51.3817 95.2468 50.5148 99.1202 49.4759 102.877C48.2444 107.356 41.9079 131.773 41.7772 132.825C41.7772 132.929 41.9286 132.922 41.9355 132.825C42.1625 130.527 47.6665 110.328 48.9049 105.821C49.5287 103.565 50.1502 101.31 50.7694 99.0583C51.2647 97.2557 51.7532 95.4532 52.3724 93.6919C53.5558 90.3276 55.2827 86.9495 58.3443 84.9474C61.6123 82.8009 65.6852 82.6426 69.4623 82.8834C71.5883 83.0348 73.7073 83.3169 75.8263 83.5714L82.8233 84.4452C87.2747 84.9681 91.7673 85.5941 96.2118 85.7317C98.4536 85.8146 100.699 85.7249 102.927 85.4634C104.941 85.2727 106.919 84.8098 108.809 84.0874C110.481 83.4411 111.885 82.2481 112.793 80.7025C113.645 78.9845 114.143 77.1128 114.258 75.1985C114.701 70.9213 114.391 66.5995 113.343 62.4292Z" fill="#37474F"/>
<path id="Vector_12" d="M76.8309 2.7658C72.4552 6.35028 70.6802 12.7762 70.6802 12.7762C70.6802 12.7762 66.2151 18.9682 66.9375 22.6627C67.1218 23.7068 67.5568 24.6905 68.2051 25.5294C68.8534 26.3682 69.6957 27.0372 70.6595 27.4787L70.4669 25.4629C70.4669 25.4629 71.5058 28.1255 75.6957 29.5909C79.8856 31.0563 85.6855 30.2789 88.7677 29.0474C90.6033 28.3395 92.2245 27.1686 93.4736 25.6487L92.0976 28.4007C93.5096 28.3823 94.8949 28.0138 96.1293 27.3281C97.3637 26.6425 98.4086 25.6612 99.1703 24.4722C102.074 20.2823 95.5858 13.2303 95.118 11.8061C94.6501 10.382 94.8496 0.309645 84.1719 1.01828C84.1719 1.00452 79.8444 0.295881 76.8309 2.7658Z" fill="#37474F"/>
<path id="Vector_13" d="M69.1871 27.0659C68.0496 26.288 67.1798 25.178 66.6966 23.8874C66.1562 22.6247 66.0544 21.2174 66.4076 19.8901C66.9498 18.3438 67.7628 16.9064 68.8087 15.6451C69.8063 14.2691 70.8727 13.0032 71.8772 11.6341C71.9254 11.5584 71.8153 11.4827 71.7534 11.5378C70.7101 12.5408 69.7269 13.6045 68.8087 14.7232C67.8848 15.7386 67.0792 16.8558 66.4076 18.0531C65.787 19.1591 65.4957 20.4196 65.5683 21.6858C65.6772 22.7196 66.0361 23.7113 66.614 24.5754C67.3343 25.5398 68.1786 26.405 69.1252 27.1485C69.1871 27.1967 69.2284 27.1072 69.1871 27.0659Z" fill="#37474F"/>
<path id="Vector_14" d="M100.498 19.9864C99.5968 16.1887 96.5146 13.533 94.8083 10.1343C93.8864 8.29043 93.2328 6.28835 91.96 4.63026C91.96 4.58898 91.8499 4.63026 91.8843 4.69218C92.9163 6.1645 93.4323 7.85698 94.1203 9.50818C94.8649 11.1401 95.7707 12.6935 96.8242 14.1453C98.668 16.8423 100.876 20.0415 100.065 23.4883C99.6863 25.0776 98.5579 26.777 96.8586 27.121C96.8522 27.121 96.846 27.1222 96.8401 27.1247C96.8343 27.1271 96.829 27.1306 96.8245 27.1351C96.82 27.1396 96.8165 27.1449 96.8141 27.1507C96.8117 27.1566 96.8104 27.1628 96.8104 27.1691C96.8104 27.1755 96.8117 27.1817 96.8141 27.1876C96.8165 27.1934 96.82 27.1987 96.8245 27.2032C96.829 27.2077 96.8343 27.2112 96.8401 27.2136C96.846 27.2161 96.8522 27.2173 96.8586 27.2173C97.5362 27.0198 98.1664 26.686 98.7106 26.2365C99.2547 25.7869 99.7015 25.2311 100.023 24.6029C100.735 23.1722 100.903 21.532 100.498 19.9864Z" fill="#37474F"/>
<path id="Vector_15" d="M100.553 20.9909C100.8 19.6088 100.615 18.1841 100.023 16.911C99.3381 15.6959 98.3995 14.6424 97.2713 13.8219C96.0467 12.8243 94.7395 11.8611 94.0377 10.3819C94.0377 10.3269 93.9208 10.3819 93.9483 10.437C95.0491 12.8518 97.464 14.1591 98.9844 16.2506C100.718 18.6311 100.409 21.8371 98.8262 24.2245C97.8261 25.671 96.499 26.8613 94.9528 27.6989C94.9528 27.6989 94.9528 27.7539 94.9528 27.7402C97.6291 26.3573 100.058 24.0663 100.553 20.9909Z" fill="#37474F"/>
<path id="Vector_16" d="M93.0677 29.0198C90.7216 38.5624 84.5227 50.7331 79.5072 50.6712C74.9251 50.5955 64.557 45.6281 60.2432 42.9656C55.9295 40.303 65.2794 29.6253 67.8112 31.1526C71.2512 33.2166 77.1543 37.6749 78.1312 37.3446C79.3352 36.9594 80.5255 35.0467 87.371 26.3366C90.2056 22.8072 94.0722 24.9538 93.0677 29.0198Z" fill="#F7A9A0"/>
<path id="Vector_17" d="M63.1809 27.1966C61.1169 26.5912 58.819 25.7381 56.5761 25.8963C54.3332 26.0545 52.6339 29.123 52.682 29.9693C52.7302 30.8155 53.8585 36.0581 56.122 35.9342C58.3855 35.8104 56.81 31.8062 56.8582 31.359C56.9063 30.9118 56.9683 30.2857 57.3948 30.3064C57.8214 30.327 65.41 33.4437 65.41 33.4437L63.1809 27.1966Z" fill="#F7A9A0"/>
<path id="Vector_18" d="M63.0571 27.5132C62.9264 27.5132 56.7963 25.4492 54.5534 25.6418C52.3105 25.8345 50.6112 28.8617 50.6593 29.7079C50.7075 30.5542 51.8358 35.7967 54.0993 35.6798C56.3628 35.5628 54.7873 31.5518 54.8355 31.0977C54.8836 30.6436 54.9456 30.0313 55.3721 30.0519C55.7987 30.0726 63.3873 33.1823 63.3873 33.1823L63.0571 27.5132Z" fill="#F7A9A0"/>
<path id="Vector_19" d="M54.8217 35.3495C55.0372 34.936 55.1415 34.4737 55.1244 34.0078C55.1437 33.5256 55.0903 33.0432 54.9662 32.5768C54.8194 32.1812 54.7066 31.7738 54.6291 31.359C54.6073 30.9453 54.6926 30.533 54.8767 30.1619C55.0281 29.8386 55.3652 29.928 55.6542 30.0106C56.0818 30.1458 56.5001 30.309 56.9063 30.499C57.3467 30.6848 57.7801 30.8843 58.2135 31.0838C58.6859 31.2664 59.1456 31.4802 59.5895 31.7237C59.5895 31.7237 59.5895 31.7994 59.5895 31.7925C59.1921 31.6615 58.8017 31.5099 58.4199 31.3384C57.9865 31.1595 57.5462 30.9875 57.1059 30.8224C56.6655 30.6573 56.294 30.4853 55.8812 30.3339C55.7368 30.2789 55.4409 30.1413 55.2827 30.1894C55.1244 30.2376 55.0488 30.6642 55.0212 30.8018C54.9493 31.2079 54.9971 31.6263 55.1588 32.0058C55.3 32.4006 55.4014 32.8085 55.4616 33.2235C55.5304 33.6127 55.5304 34.0109 55.4616 34.4C55.3404 34.748 55.1787 35.0805 54.9799 35.3907C54.8699 35.4389 54.7942 35.3907 54.8217 35.3495Z" fill="#37474F"/>
<path id="Vector_20" d="M70.4874 33.0172C70.4874 33.0172 63.9652 27.6921 62.6098 26.6325C59.8991 24.5204 48.726 20.6401 47.1986 20.5575C45.6713 20.4749 45.2791 23.6329 52.8746 26.4812C56.8719 27.981 57.6906 30.1826 57.6906 31.4279C57.6906 32.6732 56.6242 35.0468 54.5327 35.1018C52.4412 35.1569 50.9276 32.1847 48.9874 31.9508C47.0473 31.7169 48.5058 35.1569 49.9713 37.1177C51.4937 39.0053 53.5221 40.4205 55.8193 41.1975C57.6631 41.7754 63.3873 43.8876 63.3873 43.8876L70.4874 33.0172Z" fill="#F7A9A0"/>
<path id="Vector_21" d="M51.8565 33.7739C52.6752 34.3381 53.6109 35.0811 54.6085 35.0605C55.0922 35.027 55.5557 34.8537 55.9429 34.5618C56.33 34.27 56.6241 33.872 56.7895 33.4162C57.2898 32.5302 57.4302 31.4857 57.1816 30.4991C56.8901 29.6116 56.3505 28.8261 55.6267 28.2355C54.7371 27.5231 53.7502 26.9416 52.6959 26.5087C52.6477 26.5087 52.6959 26.4192 52.7371 26.4399C53.721 26.8183 56.7688 27.8778 57.5119 30.4853C57.7555 31.4941 57.6028 32.5579 57.0853 33.4575C56.9205 33.9101 56.6455 34.3144 56.2851 34.634C55.9248 34.9535 55.4904 35.1781 55.0213 35.2875C53.7967 35.4526 52.6821 34.5032 51.7533 33.8083C51.7533 33.7739 51.8152 33.7464 51.8565 33.7739Z" fill="#37474F"/>
<path id="Vector_22" d="M93.5767 31.0013C92.9044 34.8405 91.7099 38.5696 90.0266 42.085C89.6758 42.773 89.4556 43.1445 89.4556 43.1445L80.4703 36.0581L79.2319 35.0811C79.2319 35.0811 79.3971 34.8266 79.9199 34.1317C80.7043 33.1478 82.2729 31.2902 85.2588 28.0566C86.5489 26.5476 88.0755 25.258 89.779 24.2382C93.3015 22.3875 94.6431 25.2152 93.5767 31.0013Z" fill="#EBEBEB"/>
<path id="Vector_23" d="M90.9968 42.8555L88.9328 46.1441L78.8605 38.0739L76.6107 36.2851C76.8653 36.0443 79.3077 33.6432 79.3077 33.6432L79.9475 34.1523L81.2134 35.1499L90.0267 42.1056L90.9968 42.8555Z" fill="#EBEBEB"/>
<path id="Vector_24" d="M93.5768 31.0013C92.9044 34.8405 91.71 38.5696 90.0267 42.085L90.9968 42.8555L88.9328 46.1441L78.8605 38.0739L80.4704 36.0581L81.2134 35.1293C84.5296 30.9531 87.832 26.7838 89.8065 24.2382C93.3016 22.3875 94.6432 25.2152 93.5768 31.0013Z" fill="#37474F"/>
<path id="Vector_25" d="M81.2685 63.0071C81.2685 63.0071 93.6181 64.9128 116.412 61.0944C116.412 61.0944 105.149 33.1616 97.3058 26.0064C93.7351 22.7591 90.5634 23.5503 88.0178 26.0064C87.3848 26.6256 79.8099 37.9983 79.3903 41.7823C79.0256 45.1259 81.9978 48.5728 81.9978 48.5728L81.2685 63.0071Z" fill="#FDCE5A"/>
<path id="Vector_26" d="M93.2672 24.9194C93.2672 25.5524 91.4715 30.2102 88.6989 30.8156C87.7976 31.0082 86.5111 26.1303 86.5111 26.1303L86.3322 25.7932L83.8485 21.0529L88.754 15.659L89.442 14.9297C89.442 14.9297 90.0405 16.2713 90.7629 17.95L90.8661 18.1839C90.9074 18.2802 90.9487 18.3697 90.9831 18.4591C91.0931 18.7068 91.2101 18.9614 91.3133 19.2159C91.4165 19.4705 91.4784 19.6012 91.5541 19.8076C91.6298 20.014 91.7192 20.2204 91.8018 20.4268C92.3936 21.8886 92.8833 23.3898 93.2672 24.9194Z" fill="#F7A9A0"/>
<path id="Vector_27" d="M90.7698 17.95C90.6377 19.5019 90.1708 21.0067 89.4011 22.3607C88.6315 23.7147 87.5774 24.8858 86.3116 25.7932L83.8279 21.0529L88.7333 15.659L89.4213 14.9297C89.4213 14.9297 90.0474 16.2713 90.7698 17.95Z" fill="#37474F"/>
<path id="Vector_28" d="M74.643 14.7439C75.6957 24.08 81.4061 24.4997 83.415 24.2727C85.2451 24.0594 91.4371 23.1237 91.3477 13.7325C91.2582 4.34132 86.5936 1.87827 82.4037 2.13971C78.2138 2.40115 73.5904 5.4146 74.643 14.7439Z" fill="#F7A9A0"/>
<path id="Vector_29" d="M75.7782 12.9894C75.9915 12.9344 76.1773 12.845 76.3905 12.7693C76.617 12.7244 76.8211 12.6029 76.9685 12.4253C77.0058 12.3623 77.0207 12.2886 77.0107 12.2161C77.0007 12.1437 76.9664 12.0767 76.9134 12.0262C76.7955 11.9375 76.6556 11.8829 76.5088 11.8683C76.3619 11.8537 76.2139 11.8798 76.0809 11.9437C75.7937 12.0285 75.5484 12.2174 75.3929 12.4734C75.362 12.5331 75.3485 12.6003 75.354 12.6672C75.3594 12.7342 75.3837 12.7983 75.4239 12.8522C75.4641 12.906 75.5186 12.9475 75.5813 12.9717C75.644 12.996 75.7122 13.0021 75.7782 12.9894Z" fill="#37474F"/>
<path id="Vector_30" d="M82.1559 11.8198C81.9396 11.8175 81.7236 11.8014 81.5092 11.7717C81.2786 11.7852 81.0497 11.725 80.8556 11.5997C80.8051 11.5463 80.7726 11.4784 80.7627 11.4056C80.7528 11.3328 80.7661 11.2587 80.8006 11.1938C80.8936 11.0793 81.0149 10.9912 81.1525 10.9381C81.2901 10.885 81.4391 10.8688 81.5849 10.891C81.8882 10.8949 82.1795 11.01 82.4036 11.2144C82.4516 11.2644 82.484 11.3272 82.497 11.3952C82.51 11.4632 82.5029 11.5336 82.4767 11.5977C82.4505 11.6618 82.4062 11.7169 82.3493 11.7563C82.2923 11.7958 82.2252 11.8178 82.1559 11.8198Z" fill="#37474F"/>
<path id="Vector_31" d="M80.9864 14.5857C80.9864 14.5857 81.0414 14.5857 81.0414 14.6407C81.0964 15.2737 81.2616 16.0167 81.8601 16.1474V16.1818C81.1446 16.1612 80.9382 15.198 80.9864 14.5857Z" fill="#37474F"/>
<path id="Vector_32" d="M81.4817 13.8632C82.4931 13.6705 82.8027 15.707 81.867 15.8859C80.9313 16.0648 80.6355 14.0214 81.4817 13.8632Z" fill="#37474F"/>
<path id="Vector_33" d="M81.9014 13.9045C82.0941 13.994 82.3005 14.1728 82.5206 14.1591C82.7408 14.1453 82.9266 13.9045 83.0573 13.6775C83.0573 13.6775 83.0917 13.6775 83.0986 13.6775C83.1563 13.8594 83.1438 14.0563 83.0636 14.2295C82.9834 14.4027 82.8412 14.5396 82.6651 14.6132C82.2867 14.7232 81.9771 14.4136 81.8051 14.0352C81.7776 13.9871 81.8189 13.8701 81.9014 13.9045Z" fill="#37474F"/>
<path id="Vector_34" d="M77.4432 14.9572C77.4432 14.9572 77.395 14.9984 77.4019 15.0191C77.5257 15.652 77.5532 16.3951 77.0166 16.6909C77.0166 16.6909 77.0166 16.7322 77.0166 16.7253C77.7252 16.5464 77.6702 15.5626 77.4432 14.9572Z" fill="#37474F"/>
<path id="Vector_35" d="M76.7896 14.4137C75.7576 14.5031 76.0052 16.5534 76.9547 16.4777C77.9041 16.402 77.6496 14.3449 76.7896 14.4137Z" fill="#37474F"/>
<path id="Vector_36" d="M76.3768 14.5994C76.2254 14.7301 76.0878 14.9434 75.8952 14.9847C75.7025 15.026 75.4824 14.8196 75.3173 14.6269C75.3585 15.0191 75.5305 15.4112 75.9158 15.4388C76.3011 15.4663 76.48 15.1017 76.5281 14.7026C76.5006 14.6545 76.4318 14.5513 76.3768 14.5994Z" fill="#37474F"/>
<path id="Vector_37" d="M81.8463 19.7732C81.7294 19.9521 81.6193 20.1791 81.3923 20.2479C81.1656 20.2973 80.9309 20.2973 80.7043 20.2479C80.7043 20.2479 80.663 20.2479 80.7043 20.2892C80.8179 20.3942 80.958 20.4663 81.1095 20.4978C81.261 20.5293 81.4182 20.5191 81.5643 20.4681C81.6913 20.4067 81.7963 20.3078 81.8652 20.1848C81.9342 20.0617 81.9636 19.9204 81.9495 19.7801C81.9495 19.7801 81.867 19.7732 81.8463 19.7732Z" fill="#37474F"/>
<path id="Vector_38" d="M78.8811 17.8467C78.8811 17.8467 78.8811 18.8099 78.943 19.2571C78.943 19.2984 79.0599 19.3053 79.2113 19.2915C79.6033 19.3098 79.9927 19.2191 80.3363 19.0297C80.68 18.8403 80.9645 18.5594 81.1583 18.2183C81.1583 18.1701 81.1239 18.1288 81.0827 18.1632C80.5694 18.6326 79.9174 18.9224 79.2251 18.9888C79.1769 18.8719 79.2801 17.3376 79.2251 17.3445C78.8839 17.4196 78.555 17.5424 78.2481 17.7091C78.1862 15.7071 78.4476 13.705 78.3582 11.7029C78.3582 11.6865 78.3517 11.6707 78.34 11.6591C78.3284 11.6475 78.3127 11.641 78.2963 11.641C78.2798 11.641 78.2641 11.6475 78.2525 11.6591C78.2409 11.6707 78.2343 11.6865 78.2343 11.7029C77.8914 13.8405 77.7601 16.0067 77.8422 18.1701C77.8422 18.3971 78.7159 17.9431 78.8811 17.8467Z" fill="#37474F"/>
<path id="Vector_39" d="M79.2457 19.0852C79.5438 19.4221 79.9226 19.6778 80.3465 19.8282C80.5708 19.8964 80.8103 19.8964 81.0345 19.8282C81.5437 19.6631 81.523 19.1884 81.4061 18.7894C81.3366 18.5803 81.2443 18.3796 81.1309 18.1908C80.6134 18.6816 79.9531 18.9948 79.2457 19.0852Z" fill="#37474F"/>
<path id="Vector_40" d="M80.3466 19.8076C80.5708 19.8757 80.8103 19.8757 81.0346 19.8076C81.5437 19.6424 81.523 19.1677 81.4061 18.7687C81.1388 18.7986 80.8893 18.9172 80.6973 19.1055C80.5052 19.2938 80.3818 19.5409 80.3466 19.8076Z" fill="#FF9CBD"/>
<path id="Vector_41" d="M90.7422 14.5305C89.7171 14.5305 86.855 11.9506 86.394 7.03823C86.394 7.03823 87.082 11.4208 87.4948 12.04C87.9076 12.6592 85.8918 10.5814 85.4308 6.62543C84.2506 7.61517 82.9346 8.43071 81.523 9.04719C79.6929 9.73519 78.544 9.78335 78.3995 9.65951C78.255 9.53567 80.9451 8.45551 81.6262 7.54047C81.6262 7.54047 76.8102 10.2374 74.5398 10.5883C74.2715 10.5883 73.5422 5.18751 76.9134 2.60063C80.2846 0.0137475 86.0982 2.08463 87.7219 3.42623C87.7219 3.42623 89.5176 3.54319 91.6435 6.01999C93.7694 8.49678 91.843 14.5099 90.7422 14.5305Z" fill="#37474F"/>
<path id="Vector_42" d="M92.077 16.8973C91.9512 16.9774 91.8175 17.0443 91.6779 17.0968C91.5386 17.1489 91.3927 17.1813 91.2445 17.1931C91.0542 17.2132 90.8618 17.1921 90.6803 17.1312C90.5368 17.0829 90.4003 17.0158 90.2744 16.9317C90.0985 16.8098 89.9449 16.6585 89.8203 16.4845V13.9251C89.8203 13.9251 91.2513 10.6434 92.6962 11.0974C94.141 11.5515 93.4942 16.0235 92.077 16.8973Z" fill="#F7A9A0"/>
<path id="Vector_43" d="M92.4898 12.3702C92.4898 12.3702 92.4898 12.3702 92.4898 12.4115C92.0451 12.7555 91.678 13.1895 91.4125 13.685C91.1469 14.1806 90.9889 14.7266 90.9487 15.2874C90.9889 15.1669 91.0548 15.0567 91.1419 14.9643C91.229 14.872 91.3352 14.7997 91.453 14.7526C91.5709 14.7054 91.6976 14.6845 91.8244 14.6913C91.9512 14.6981 92.0749 14.7325 92.1871 14.792V14.8539C91.9861 14.8317 91.7832 14.872 91.6059 14.9693C91.4286 15.0665 91.2856 15.216 91.1964 15.3974C91.0527 15.7036 90.942 16.0242 90.8661 16.3538C90.8317 16.4638 90.6528 16.4432 90.6666 16.3538C90.3708 14.9571 91.0519 12.8106 92.4898 12.3702Z" fill="#37474F"/>
<path id="Vector_44" d="M91.8912 20.7776C91.8492 20.8663 91.7868 20.9437 91.709 21.0035C91.6313 21.0633 91.5404 21.1038 91.444 21.1216C91.0862 21.1767 90.4051 20.8464 90.1437 19.2365C90.0231 18.4669 90.0724 17.6802 90.2881 16.9317C90.3501 16.7459 90.3982 16.629 90.3982 16.6152C90.4236 16.5621 90.4687 16.5209 90.5239 16.5003C90.5791 16.4798 90.6401 16.4815 90.6941 16.5051C90.7467 16.5292 90.7878 16.5729 90.8084 16.627C90.829 16.6811 90.8275 16.7411 90.8041 16.7941C90.7605 16.9041 90.7237 17.0167 90.6941 17.1312C90.5101 17.8034 90.4726 18.5073 90.584 19.1952C90.7904 20.5093 91.272 20.7295 91.3752 20.7088C91.4784 20.6882 91.4646 20.6607 91.5059 20.5919C91.8293 20.0002 91.6435 18.177 91.2582 17.2206C91.4065 17.2088 91.5524 17.1764 91.6917 17.1243C92.0494 18.0806 92.2902 20.0277 91.8912 20.7776Z" fill="#364FD4"/>
<path id="Vector_45" d="M96.3769 32.3635C93.2672 41.7341 79.0256 59.1336 73.5078 60.0211C67.1094 61.0462 50.8038 52.6664 47.1093 49.0131C45.6438 47.5477 55.4203 38.0945 57.3604 39.1678C65.4857 43.6536 72.2969 45.4768 73.5216 44.892C75.3998 43.9976 83.7246 35.8998 89.1873 30.444C96.0536 23.5089 97.7805 28.1598 96.3769 32.3635Z" fill="#F7A9A0"/>
<path id="Vector_46" d="M47.5083 49.3021C46.6689 48.848 41.22 43.461 39.7339 41.0943C38.1134 38.6308 36.9072 35.9186 36.1632 33.0653C34.9936 28.552 34.6152 25.3253 35.2688 24.0044C36.0256 22.4632 36.2113 22.2293 39.3968 29.9074C41.1856 34.2487 43.4009 35.0467 45.3892 35.3151C50.2415 35.9737 54.8833 37.7161 58.9704 40.4131C58.9704 40.4131 50.7419 51.0496 47.5083 49.3021Z" fill="#F7A9A0"/>
<path id="Vector_47" d="M42.9468 18.0326L50.4323 31.8958C50.6524 32.3086 50.4873 32.687 50.0607 32.7489L42.4927 33.8635C42.2586 33.88 42.0246 33.8299 41.8176 33.7191C41.6107 33.6084 41.4393 33.4414 41.3231 33.2374L33.8308 19.3673C33.7725 19.2926 33.7353 19.2036 33.7231 19.1097C33.7108 19.0157 33.724 18.9202 33.7613 18.8331C33.7985 18.7459 33.8584 18.6704 33.9348 18.6143C34.0112 18.5582 34.1012 18.5236 34.1955 18.5142L41.7635 17.3996C42.0007 17.3803 42.2384 17.4297 42.4483 17.5419C42.6582 17.6542 42.8313 17.8245 42.9468 18.0326Z" fill="#37474F"/>
<path id="Vector_48" d="M43.6279 17.9637L51.1134 31.8338C51.1719 31.9089 51.209 31.9985 51.2209 32.093C51.2328 32.1874 51.2191 32.2834 51.181 32.3707C51.143 32.458 51.0821 32.5335 51.0049 32.5891C50.9276 32.6448 50.8367 32.6786 50.7418 32.6869L43.1739 33.7946C42.9392 33.8145 42.7039 33.7659 42.4963 33.6548C42.2887 33.5437 42.1178 33.3748 42.0042 33.1685L34.5119 19.2984C34.4531 19.2244 34.4155 19.1359 34.403 19.0421C34.3905 18.9484 34.4037 18.8531 34.4411 18.7663C34.4785 18.6794 34.5388 18.6044 34.6155 18.5491C34.6921 18.4938 34.7824 18.4603 34.8766 18.4522L42.4446 17.3377C42.6812 17.3168 42.9188 17.3648 43.1288 17.4759C43.3387 17.5869 43.5121 17.7564 43.6279 17.9637Z" fill="#37474F"/>
<path id="Vector_49" d="M43.5248 18.7274L50.4048 31.4485C50.6181 31.8338 50.4805 32.1916 50.1021 32.2466L43.3184 33.2442C43.1023 33.255 42.8876 33.2045 42.699 33.0986C42.5103 32.9927 42.3554 32.8357 42.252 32.6457L35.372 19.9245C34.9454 19.1333 35.1587 18.9132 35.5371 18.8581L36.9131 18.6586C36.9888 18.6586 37.0989 18.7205 37.1539 18.8306V18.8719C37.2846 19.1196 37.4291 19.0989 37.608 19.0714L40.7453 18.6105C40.9242 18.6105 41.0618 18.5623 40.931 18.3215V18.2733C40.876 18.1701 40.8966 18.0738 40.9723 18.0601L42.3483 17.8605C42.6923 17.8055 43.1326 18.005 43.5248 18.7274Z" fill="white"/>
<path id="Vector_50" d="M39.445 18.4728L38.585 18.5967C38.5696 18.5983 38.5542 18.5952 38.5407 18.5879C38.5271 18.5805 38.5162 18.5691 38.5093 18.5554V18.5003L39.3624 18.3696C39.379 18.3704 39.3952 18.3752 39.4096 18.3836C39.424 18.392 39.4361 18.4037 39.445 18.4178C39.4492 18.421 39.4527 18.4251 39.4551 18.4299C39.4575 18.4347 39.4587 18.44 39.4587 18.4453C39.4587 18.4507 39.4575 18.4559 39.4551 18.4607C39.4527 18.4655 39.4492 18.4696 39.445 18.4728Z" fill="white"/>
<path id="Vector_51" d="M46.3663 26.3986L40.6077 27.2448L37.6631 21.789L43.4216 20.9427L46.3663 26.3986Z" fill="#364FD4"/>
<path id="Vector_52" d="M44.4536 27.6439L41.0892 28.1393L40.9172 27.8159L44.2816 27.3206L44.4536 27.6439Z" fill="#A6A6A6"/>
<path id="Vector_53" d="M45.3549 28.0773L41.3714 28.6621L41.2888 28.5039L45.2655 27.9191L45.3549 28.0773Z" fill="#A6A6A6"/>
<path id="Vector_54" d="M45.5131 28.3732L41.5296 28.958L41.447 28.7998L45.4305 28.215L45.5131 28.3732Z" fill="#A6A6A6"/>
<path id="Vector_55" d="M45.6713 28.669L41.6878 29.2538L41.6052 29.0887L45.5819 28.5039L45.6713 28.669Z" fill="#A6A6A6"/>
<path id="Vector_56" d="M37.4842 20.0209L36.7687 20.131L36.693 19.9933L37.4154 19.8901L37.4842 20.0209Z" fill="#A6A6A6"/>
<path id="Vector_57" d="M37.6148 20.2685L36.8993 20.3716L36.8236 20.2409L37.546 20.1309L37.6148 20.2685Z" fill="#A6A6A6"/>
<path id="Vector_58" d="M37.7455 20.5094L37.03 20.6126L36.9543 20.4819L37.6767 20.3787L37.7455 20.5094Z" fill="#A6A6A6"/>
<path id="Vector_59" d="M46.7377 27.2104C46.7223 27.2831 46.6865 27.35 46.6345 27.4031C46.5358 27.3727 46.4428 27.3262 46.3593 27.2655C46.1873 27.1554 46.1048 26.9765 46.2492 26.9559C46.3937 26.9352 46.4694 27.0866 46.4694 27.0866C46.4694 27.0866 46.4075 26.9352 46.5176 26.9146C46.6276 26.894 46.7721 27.0728 46.7377 27.2104Z" fill="#364FD4"/>
<path id="Vector_60" d="M48.3271 31.1389L43.6762 31.8201L43.002 30.561L47.646 29.8799L48.3271 31.1389Z" fill="#364FD4"/>
<path id="Vector_61" d="M44.3572 35.1293C46.4212 35.4733 40.3806 30.3133 40.6352 27.9535C40.8897 25.5936 43.05 26.6876 44.6393 28.2768C50.1433 33.7808 54.8768 34.2968 57.3604 39.1472C59.8441 43.9977 44.3572 35.1293 44.3572 35.1293Z" fill="#F7A9A0"/>
<path id="Vector_62" d="M77.1267 42.0575C76.5282 42.4978 75.9503 42.9588 75.3723 43.4335C74.8514 43.8882 74.2894 44.2935 73.6936 44.6444C72.9762 44.9384 72.1796 44.9773 71.437 44.7545C70.7658 44.6165 70.1022 44.4443 69.4487 44.2385C66.7698 43.3931 64.1536 42.3608 61.6192 41.1494C60.1799 40.5419 58.7763 39.8528 57.4155 39.0854L57.5669 39.2711C57.2493 38.6065 56.8593 37.9789 56.4042 37.3997C55.8763 36.7286 55.2791 36.1152 54.6223 35.5697C53.9215 34.9924 53.1837 34.4615 52.4138 33.9804C52.0147 33.7258 51.6088 33.4781 51.2029 33.2373L50.6112 32.8452C50.3606 32.7347 50.1285 32.5862 49.9232 32.4049C49.9714 32.4737 50.0677 32.4049 50.0058 32.3361C50.0058 32.3361 49.9576 32.3361 49.937 32.3361C49.9319 32.3431 49.9292 32.3515 49.9292 32.3601C49.9292 32.3688 49.9319 32.3772 49.937 32.3842C49.9989 32.5012 50.1434 32.5562 50.2466 32.6319L50.8107 33.0585L51.8703 33.8359C52.6615 34.4069 53.4595 34.9917 54.2163 35.6178C54.8635 36.1504 55.4727 36.7274 56.0395 37.3447C56.3285 37.6543 56.5899 37.9914 56.8651 38.3217C57.1213 38.6421 57.3514 38.9826 57.5531 39.3399C57.5531 39.3743 60.0368 40.7159 61.3234 41.4039C62.6099 42.0919 63.9309 42.6698 65.2794 43.2134C66.6279 43.7569 67.9901 44.2522 69.4074 44.6857C70.1107 44.912 70.8277 45.0935 71.5539 45.2292C72.2009 45.4184 72.8884 45.4184 73.5354 45.2292C74.1776 44.858 74.7618 44.3944 75.2691 43.8532C75.9571 43.2684 76.6451 42.6836 77.3331 42.0713C77.2024 42.085 77.1611 42.0369 77.1267 42.0575Z" fill="#37474F"/>
<path id="Vector_63" d="M77.0098 41.6929L86.4973 50.6025C86.4973 50.6025 94.5882 40.6471 96.7278 32.9553C98.8675 25.2634 94.8909 24.2108 87.832 31.2077C80.9245 38.0465 77.0098 41.6929 77.0098 41.6929Z" fill="#C6920A"/>
<path id="Vector_64" d="M84.4126 34.5101C83.181 35.5902 82.0046 36.7461 80.835 37.8882C80.2639 38.4454 79.6998 39.0027 79.1494 39.5738C78.8535 39.8765 78.5577 40.1723 78.2687 40.475C77.9633 40.8254 77.6271 41.1478 77.2642 41.4382C77.2023 41.4864 77.2642 41.5827 77.333 41.5208C77.8919 40.922 78.4944 40.3655 79.1356 39.8558C79.7617 39.2917 80.3809 38.7138 80.9863 38.129C82.1697 36.9731 83.3599 35.7966 84.4263 34.5514C84.4814 34.5238 84.4401 34.4894 84.4126 34.5101Z" fill="#37474F"/>
<path id="Vector_65" d="M94.2511 40.0485C93.9388 40.4271 93.5935 40.7771 93.2191 41.0943L92.7925 41.4796C93.4323 40.42 94.0447 39.3468 94.602 38.2528C94.602 38.2184 94.602 38.2528 94.602 38.2528C93.1916 40.3168 91.8981 42.484 90.4739 44.5618C89.0498 46.6396 87.7219 48.8824 86.229 50.9327C86.2215 50.9375 86.2153 50.944 86.2109 50.9517C86.2065 50.9595 86.2041 50.9681 86.2038 50.977C86.2035 50.9859 86.2053 50.9947 86.2091 51.0027C86.2129 51.0107 86.2186 51.0177 86.2257 51.023C86.2328 51.0283 86.2411 51.0318 86.2499 51.0333C86.2587 51.0347 86.2676 51.034 86.2761 51.0312C86.2845 51.0284 86.2921 51.0236 86.2983 51.0173C86.3045 51.0109 86.309 51.0031 86.3115 50.9946C87.7839 48.9306 89.3731 46.9423 90.7423 44.8026C91.2858 43.9426 91.8362 43.0826 92.3728 42.2088C92.5398 42.0817 92.6962 41.9414 92.8407 41.7892C93.023 41.6206 93.1953 41.4414 93.3567 41.2525C93.6732 40.8741 94.0034 40.5026 94.3405 40.138C94.3749 40.0761 94.2923 40.0004 94.2511 40.0485Z" fill="#37474F"/>
<path id="Vector_66" d="M74.2921 42.6492L77.2092 40.248L88.059 50.4442L85.6992 53.5471L74.2921 42.6492Z" fill="#FDCE5A"/>
<path id="Vector_67" d="M86.7381 49.1026C85.3965 47.7266 83.9448 46.4538 82.5413 45.1466C81.1378 43.8394 79.6311 42.6216 78.2688 41.2663C78.2583 41.2598 78.2459 41.2571 78.2336 41.2586C78.2213 41.26 78.2099 41.2655 78.2012 41.2743C78.1924 41.283 78.1869 41.2945 78.1854 41.3067C78.184 41.319 78.1867 41.3314 78.1932 41.342C79.5692 42.6767 80.8626 44.094 82.2799 45.4218C83.6746 46.7513 85.1374 48.0074 86.6624 49.1851C86.7175 49.2264 86.7932 49.1576 86.7381 49.1026Z" fill="#37474F"/>
<path id="Vector_68" d="M83.8141 51.7514C84.5021 52.2812 85.1901 52.8522 85.7955 53.4301H85.5616C86.3322 52.3775 87.1302 51.3661 87.9834 50.3685V50.4924C87.7288 50.2172 87.4742 49.942 87.2334 49.6599C87.5293 49.8801 87.8251 50.1209 88.1141 50.3479L88.1691 50.4029L88.121 50.4717C87.3917 51.5588 86.6142 52.5977 85.7955 53.609L85.6854 53.7535L85.5685 53.6297C84.9699 53.038 84.3782 52.4119 83.8141 51.7514Z" fill="#37474F"/>
<path id="Vector_69" d="M93.2672 27.0729C92.6303 27.3367 92.0311 27.6837 91.4853 28.1049C90.9095 28.5081 90.356 28.9422 89.8272 29.4052C88.7952 30.3271 87.8182 31.2972 86.8069 32.2397C87.2472 31.7031 87.7219 31.194 88.1829 30.6986C88.6438 30.2033 89.1942 29.7492 89.7309 29.3226C90.2675 28.8961 90.811 28.4558 91.3821 28.0636C91.9502 27.6626 92.5676 27.3366 93.219 27.0935L93.2672 27.0729Z" fill="#37474F"/>
</g>
</svg>
