<svg width="68" height="102" viewBox="0 0 68 102" fill="none" xmlns="http://www.w3.org/2000/svg">
<g id="freepik  Plant  inject 2">
<path id="Vector" d="M39.3319 58.5413C39.3319 58.5413 50.9786 55.9213 57.3614 50.042C63.7442 44.1627 67.3112 33.6827 67.3112 33.6827C62.8857 34.5288 58.5225 35.672 54.2514 37.1045C53.2007 38.2153 51.2202 40.5052 50.2956 42.6746C50.1959 41.349 50.1959 40.0178 50.2956 38.6922C48.8034 39.3351 47.407 40.1797 46.1455 41.2021C40.8291 45.8081 39.3319 58.5413 39.3319 58.5413Z" fill="#36D4B8"/>
<path id="Vector_2" d="M60.0352 38.7708C61.6112 37.6756 63.2398 36.6224 64.821 35.5167C64.9156 35.4486 64.821 35.2966 64.7264 35.3595C61.7268 37.1464 58.7692 39.059 55.9061 41.0606C54.908 41.7576 53.9256 42.4859 52.959 43.2248C53.0273 43.1095 53.0904 42.9942 53.1639 42.8789C53.5106 42.2973 53.8783 41.7209 54.2461 41.1497C54.9752 39.992 55.7993 38.8966 56.7099 37.8747C56.7414 37.838 56.7099 37.7856 56.6521 37.8223C55.7485 38.8703 54.8397 39.9183 54.0255 41.003C53.6367 41.527 53.269 42.051 52.9222 42.6326C52.7384 42.9208 52.565 43.209 52.3969 43.5077C52.3444 43.6073 52.2814 43.7068 52.2236 43.8064C50.7159 44.9854 49.2502 46.2168 47.8528 47.5163C46.986 48.318 46.156 49.1512 45.3522 50.0106C45.7988 48.6062 46.1927 47.181 46.7181 45.8186C46.7181 45.7714 46.6551 45.7504 46.6393 45.8186C46.114 47.27 45.5886 48.7268 45.1841 50.2202C44.2911 51.1808 43.4418 52.1782 42.6363 53.2122C42.6363 53.1493 42.6362 53.0864 42.6783 53.0236C42.8096 52.4996 42.9462 51.9284 43.0933 51.3887C43.377 50.3407 43.6869 49.2927 44.0442 48.2447C44.7215 46.1043 45.7901 44.1074 47.1961 42.3549C47.2011 42.3469 47.2032 42.3374 47.202 42.3281C47.2009 42.3187 47.1967 42.31 47.19 42.3034C47.1833 42.2967 47.1746 42.2925 47.1652 42.2914C47.1559 42.2903 47.1464 42.2924 47.1384 42.2973C44.8637 44.9854 43.5293 48.2028 42.6783 51.5878C42.5575 52.0804 42.4366 52.5782 42.3263 53.076C42.2633 53.338 42.195 53.6 42.1529 53.8777C41.801 54.3545 41.4543 54.8314 41.1023 55.3239C39.1181 58.3505 37.4661 61.5812 36.1747 64.9603C34.7202 68.7589 33.4733 72.6335 32.4396 76.5669C32.4396 76.6455 32.5342 76.6717 32.5604 76.5983C34.8404 69.7863 37.1675 62.9062 41.0655 56.833C41.8881 55.5507 42.7753 54.3107 43.7237 53.1179C45.6438 52.9806 47.5373 52.5912 49.3552 51.9598C51.3535 51.2879 53.2595 50.369 55.0288 49.2246C56.0356 48.5443 57.007 47.8132 57.9392 47.0342C57.9448 47.0314 57.9496 47.0273 57.9534 47.0223C57.9572 47.0172 57.9598 47.0115 57.9611 47.0053C57.9623 46.9992 57.9622 46.9928 57.9606 46.9867C57.9591 46.9806 57.9562 46.975 57.9522 46.9702C57.9481 46.9653 57.9431 46.9615 57.9373 46.9589C57.9316 46.9563 57.9254 46.955 57.9191 46.9551C57.9128 46.9552 57.9066 46.9567 57.901 46.9595C57.8954 46.9624 57.8905 46.9664 57.8866 46.9714C56.2604 48.2794 54.4652 49.3634 52.5493 50.194C50.6668 51.0545 48.698 51.7132 46.6761 52.159C45.8145 52.3476 44.9477 52.4838 44.0494 52.5991C45.129 51.2769 46.2757 50.0106 47.4851 48.8054C47.8791 48.4176 48.2836 48.0403 48.6881 47.663C50.0595 46.7172 51.5135 45.8964 53.0326 45.2107C54.9395 44.2937 56.8202 43.3191 58.7061 42.3602C59.7568 41.8362 60.8075 41.265 61.9054 40.7462C61.9527 40.7462 61.9054 40.6519 61.8634 40.6781C59.9512 41.6004 58.0075 42.4597 56.0847 43.3453C54.2671 44.1732 52.4074 45.0064 50.6791 45.9653L50.4584 46.0963C52.0344 44.7234 53.6682 43.4186 55.344 42.161C56.878 41.0187 58.4487 39.8712 60.0352 38.7708Z" fill="#263238"/>
<path id="Vector_3" d="M59.3734 44.7601C58.4278 45.1741 57.4664 45.5409 56.5261 45.981C55.5857 46.4212 54.6506 46.9556 53.7365 47.4954C53.6945 47.5216 53.7365 47.574 53.7733 47.5583C54.6979 47.1129 55.6382 46.6989 56.5628 46.2378C57.4874 45.7767 58.433 45.2579 59.3996 44.8387C59.4469 44.8177 59.4206 44.7392 59.3734 44.7601Z" fill="#263238"/>
<path id="Vector_4" d="M1.50269 0C3.65322 2.7695 4.87215 6.1456 4.98565 9.64684C5.02242 10.6948 4.85433 12.1411 4.7335 13.8388C9.07801 16.1497 12.3351 20.3155 12.3351 20.3155C9.86603 18.8378 6.48285 18.2195 4.65469 18.4815C4.7139 19.6492 4.8632 20.8107 5.10124 21.9556C5.905 21.9084 7.46522 22.0185 10.0394 22.9302C8.50947 22.9145 6.99284 23.2142 5.58454 23.8106C7.68587 30.3972 13.8323 37.1673 30.8688 40.0546C32.6795 31.9754 31.6133 23.5195 27.8534 16.1392C22.7472 6.12031 1.50269 0 1.50269 0Z" fill="#36D4B8"/>
<path id="Vector_5" d="M36.7473 68.2668C36.4531 65.4511 36.0854 62.6442 35.6441 59.8461C34.7801 54.2463 33.6334 48.6936 32.2084 43.2091C31.5405 40.6369 30.7195 38.1068 29.7498 35.632C29.7969 35.1795 29.818 34.7246 29.8129 34.2696C29.8129 33.7456 29.8129 33.1797 29.8129 32.6348C29.8129 31.5501 29.7498 30.4602 29.6553 29.3755C29.4843 27.226 29.1328 25.0946 28.6046 23.0036C28.2947 21.7932 27.9322 20.6037 27.554 19.4038C27.554 19.3566 27.4646 19.3776 27.4804 19.4038C28.043 21.4934 28.4625 23.6187 28.736 25.7651C29.0397 27.8792 29.2308 30.0079 29.3086 32.1422C29.3086 32.7291 29.3401 33.3107 29.3401 33.8976C29.3401 34.1439 29.3401 34.4216 29.3401 34.6469C28.5027 32.6155 27.5431 30.6365 26.4665 28.7205C24.7367 25.6822 22.7879 22.7733 20.6353 20.0169C20.6299 19.6959 20.5822 19.377 20.4935 19.0684C20.4147 18.6859 20.3306 18.3086 20.2466 17.9313C20.0732 17.1506 19.8788 16.3593 19.6687 15.6152C19.2432 14.0747 18.6811 12.5865 18.203 11.0669C18.203 11.0145 18.1085 11.0407 18.1242 11.0669C18.576 12.5708 18.8755 14.1323 19.2169 15.6624C19.3903 16.4222 19.5584 17.182 19.7423 17.9366C19.8263 18.3191 19.9103 18.6964 19.9891 19.0789V19.1627C19.301 18.2981 18.597 17.4388 17.8878 16.6004C14.636 12.7961 11.0585 9.26437 7.47574 5.79549C7.03446 5.37105 6.58265 4.95185 6.13611 4.52741C6.12807 4.52249 6.11862 4.52042 6.10924 4.52153C6.09987 4.52264 6.09113 4.52686 6.08446 4.53352C6.07779 4.54017 6.07355 4.54888 6.07244 4.55822C6.07132 4.56757 6.07341 4.57702 6.07834 4.58505C9.51401 8.15873 12.9077 11.7691 16.0912 15.5471C16.8529 16.4484 17.5989 17.3549 18.3344 18.2772L17.1734 17.5069C16.1805 16.8624 15.1771 16.2336 14.1422 15.6572C13.1073 15.0808 12.0409 14.5096 10.9902 13.9856C9.93952 13.4616 8.73126 13.0057 7.67534 12.4136C7.62806 12.4136 7.59131 12.4608 7.63859 12.4817C8.71374 12.9791 9.75135 13.5535 10.7433 14.2005C11.794 14.8135 12.8184 15.4318 13.8375 16.0764C14.8567 16.7209 15.8443 17.334 16.8371 17.9785C17.6672 18.5025 18.4814 19.0998 19.343 19.5976C21.3211 22.1263 23.1438 24.7721 24.8012 27.5205C25.8343 29.2501 26.7759 31.0324 27.6222 32.8601L27.0128 32.5929L25.4368 31.9064C24.4335 31.461 23.4301 31.0261 22.4214 30.5912C20.5092 29.7632 18.5708 29.0192 16.6953 28.0917C15.6391 27.5969 14.6176 27.0315 13.6379 26.3992C13.5959 26.3677 13.5591 26.4359 13.6011 26.4673C17.0946 28.8672 21.0083 30.5597 24.8748 32.268L26.5506 33.0068C27.0129 33.2112 27.4752 33.4365 27.948 33.6146C29.0919 36.1644 30.0556 38.7908 30.832 41.4746C32.346 46.8876 33.5734 52.3762 34.5094 57.9178C35.4865 63.4669 36.1484 69.058 36.6632 74.6858C36.7263 75.3827 36.7893 76.0848 36.8681 76.7818C36.8681 76.8401 36.8914 76.8961 36.9327 76.9374C36.9741 76.9787 37.0302 77.0018 37.0888 77.0018C37.1473 77.0018 37.2034 76.9787 37.2447 76.9374C37.2861 76.8961 37.3094 76.8401 37.3094 76.7818C37.3567 73.926 37.0677 71.0702 36.7473 68.2668Z" fill="#263238"/>
<path id="Vector_6" d="M26.4034 21.3059C26.0882 19.5767 25.6259 17.8842 25.1637 16.1969C25.1607 16.1889 25.1553 16.1819 25.1482 16.1771C25.1412 16.1722 25.1328 16.1696 25.1242 16.1696C25.1157 16.1696 25.1073 16.1722 25.1003 16.1771C25.0932 16.1819 25.0878 16.1889 25.0848 16.1969C25.5156 17.858 25.8256 19.5505 26.1355 21.2325C26.4454 22.9145 26.7396 24.6804 26.9813 26.4096H27.0286C26.9171 24.6979 26.7084 22.994 26.4034 21.3059Z" fill="#263238"/>
<path id="Vector_7" d="M19.0593 25.9904C17.8752 25.2066 16.6377 24.5063 15.3557 23.8944C14.7306 23.5748 14.1054 23.2708 13.475 22.9669C12.8446 22.663 12.1512 22.3905 11.5103 22.0656C11.5005 22.0601 11.489 22.0586 11.4781 22.0615C11.4673 22.0645 11.458 22.0716 11.4525 22.0813C11.4469 22.0911 11.4454 22.1026 11.4484 22.1134C11.4514 22.1242 11.4585 22.1334 11.4682 22.139C12.0934 22.4482 12.6818 22.8254 13.2964 23.1608L15.1876 24.2088C16.4327 24.8743 17.6567 25.6131 18.9648 26.1581C18.9871 26.1706 19.0134 26.1737 19.0381 26.1669C19.0627 26.16 19.0836 26.1436 19.0961 26.1214C19.1087 26.0992 19.1118 26.0729 19.1049 26.0483C19.098 26.0237 19.0816 26.0029 19.0593 25.9904Z" fill="#263238"/>
<path id="Vector_8" opacity="0.1" d="M39.542 38.3988C39.542 38.3988 50.3218 35.8312 55.2705 28.6209C59.9985 21.7356 61.522 9.99797 61.6428 8.96045C61.4484 9.90889 59.2263 20.1688 51.8873 24.9477C46.2715 28.6314 40.8448 31.6392 39.542 38.3988Z" fill="#263238"/>
<path id="Vector_9" d="M39.542 38.3987C39.542 38.3987 50.3219 35.8311 55.2705 28.6208C59.9985 21.7355 61.522 9.99786 61.6428 8.96033C61.645 8.93768 61.645 8.91487 61.6428 8.89221C61.6428 8.89221 56.4788 16.2282 51.0416 18.0884C45.6044 19.9486 37.987 26.441 39.542 38.3987Z" fill="#36D4B8"/>
<path id="Vector_10" d="M59.7463 12.9532C58.7781 14.926 57.6648 16.8245 56.4157 18.6334C55.158 20.3547 53.6656 21.8926 51.9819 23.2027C50.5162 24.3607 48.9665 25.4087 47.4851 26.5458C47.499 26.5296 47.5114 26.512 47.5218 26.4934C47.8003 26.0847 48.0944 25.6812 48.4044 25.2934C49.019 24.5022 49.6967 23.7634 50.3744 23.0298C51.714 21.5783 53.0798 20.1582 54.2776 18.5915C54.9452 17.7256 55.5242 16.7953 56.0059 15.8143C56.0059 15.7671 55.9534 15.7409 55.9324 15.7881C54.1831 19.4194 50.6791 21.746 48.2048 24.8114C47.8477 25.2472 47.5144 25.702 47.2066 26.1738C46.9604 26.5132 46.7525 26.8787 46.5867 27.2637C45.2225 28.3537 43.9886 29.5968 42.9094 30.9684C43.0044 30.2606 43.1483 29.5603 43.3402 28.8724C43.5909 27.9163 43.9765 27.0006 44.4854 26.1528C44.4854 26.1056 44.4434 26.0637 44.4171 26.1056C43.8955 26.9556 43.4742 27.8629 43.1616 28.8095C42.9375 29.5647 42.8052 30.3441 42.7676 31.1308C42.2352 31.8522 41.7492 32.6065 41.3124 33.3892C41.3597 33.1587 41.4017 32.9281 41.449 32.6975C41.6591 31.6495 41.8955 30.5596 42.174 29.5064C42.6811 27.3527 43.5591 25.3031 44.7691 23.449C44.7713 23.4403 44.7706 23.4312 44.7673 23.4229C44.7639 23.4147 44.758 23.4077 44.7504 23.403C44.7428 23.3983 44.7338 23.3962 44.7249 23.3969C44.716 23.3976 44.7076 23.4012 44.7008 23.407C43.4651 25.2335 42.4991 27.2276 41.8325 29.3282C41.4858 30.3762 41.2126 31.4557 40.9709 32.5404C40.8501 33.0644 40.745 33.5884 40.6452 34.1124C40.5927 34.3901 40.5297 34.673 40.4876 34.956C39.4169 37.2947 38.5845 39.7348 38.0028 42.2396C36.9423 46.7234 36.172 51.2706 35.6966 55.8531C35.1425 60.6428 34.8951 65.4629 34.9559 70.2841C34.9559 70.8867 35.0032 71.4892 35.0347 72.0918C35.0347 72.249 35.2763 72.2752 35.2816 72.0918C35.3919 69.7076 35.4497 67.3234 35.5915 64.9393C35.7334 62.5551 35.9435 60.1709 36.2009 57.7971C36.688 53.1268 37.4369 48.4874 38.4441 43.9007C39.3161 39.9707 40.4509 36.0407 42.6047 32.5718C43.6742 30.8582 44.9831 29.3055 46.4922 27.9606C47.9999 26.6087 49.6442 25.4244 51.2464 24.1721C52.8604 22.9492 54.3255 21.5423 55.6119 19.9801C56.9279 18.2432 58.0749 16.3851 59.0371 14.4309L59.8094 12.9742C59.8619 12.9532 59.7673 12.9061 59.7463 12.9532Z" fill="#263238"/>
<path id="Vector_11" d="M57.8867 14.5305C57.1783 15.9782 56.3763 17.3784 55.486 18.7224C55.4839 18.7255 55.4825 18.729 55.4817 18.7327C55.481 18.7363 55.481 18.7401 55.4818 18.7437C55.4825 18.7474 55.4839 18.7508 55.486 18.7539C55.4881 18.757 55.4907 18.7597 55.4939 18.7617C55.497 18.7638 55.5005 18.7652 55.5041 18.766C55.5078 18.7667 55.5115 18.7667 55.5152 18.7659C55.5188 18.7652 55.5223 18.7638 55.5254 18.7617C55.5285 18.7596 55.5312 18.757 55.5333 18.7539C56.456 17.4252 57.2677 16.0232 57.9602 14.5619C57.9812 14.5095 57.9077 14.4833 57.8867 14.5305Z" fill="#263238"/>
<path id="Vector_12" d="M0.000230535 33.6827C0.000230535 33.6827 -0.173137 48.9573 8.98865 53.3642C18.1504 57.771 23.0518 54.103 29.2717 55.5807C29.0301 55.2191 24.591 48.8525 17.5305 47.0971C10.2547 45.2631 2.20137 40.0284 0.000230535 33.6827Z" fill="#36D4B8"/>
<path id="Vector_13" opacity="0.1" d="M0.000230535 33.6827C0.000230535 33.6827 -0.173137 48.9573 8.98865 53.3642C18.1504 57.771 23.0518 54.103 29.2717 55.5807C25.9853 54.0222 22.4734 52.9895 18.8649 52.5205C13.1073 51.7974 2.07529 48.0456 0.000230535 33.6827Z" fill="black"/>
<path id="Vector_14" d="M29.8759 55.8322C28.7853 54.845 27.5595 54.0175 26.2353 53.3746C26.0357 53.2803 25.836 53.2069 25.6364 53.1179C25.5402 52.9965 25.4367 52.881 25.3265 52.772C25.0549 52.4837 24.7672 52.2107 24.4649 51.9546C23.893 51.4588 23.2776 51.0151 22.6263 50.6289C21.108 49.7381 19.4743 49.1145 17.8983 48.2866C17.8889 48.2842 17.8791 48.285 17.8703 48.289C17.8615 48.293 17.8544 48.2998 17.8501 48.3084C17.8458 48.317 17.8446 48.3268 17.8466 48.3362C17.8487 48.3456 17.8539 48.354 17.8615 48.36C18.6285 48.753 19.3692 49.1931 20.1152 49.628C20.8612 50.0629 21.5861 50.4507 22.29 50.9066C22.9271 51.3135 23.5329 51.7671 24.1025 52.2637C24.2653 52.4052 24.4177 52.5572 24.57 52.7091C23.5573 52.3706 22.5237 52.0975 21.4758 51.8917C19.8 51.5511 18.1084 51.3153 16.4326 50.959C15.612 50.7856 14.8018 50.567 14.0056 50.304C13.2438 49.6961 12.4873 49.0883 11.7676 48.4281C10.8967 47.6313 10.1034 46.7541 9.39837 45.8081C9.39837 45.7662 9.3038 45.8081 9.33007 45.85C10.4478 47.3486 11.7132 48.7319 13.1072 49.9791C12.7132 49.8324 12.3192 49.6699 11.9357 49.497C8.79112 48.0893 6.09309 45.8494 4.13451 43.0204C4.12775 43.0145 4.11931 43.011 4.1104 43.0103C4.10148 43.0095 4.09256 43.0117 4.08494 43.0163C4.07732 43.021 4.07141 43.028 4.06804 43.0363C4.06467 43.0445 4.06403 43.0537 4.06621 43.0623C5.72727 45.4898 7.87352 47.5485 10.3702 49.1093C11.6209 49.8899 12.9592 50.5212 14.3575 50.9904C15.9794 51.4951 17.6347 51.8856 19.3114 52.159C20.955 52.4271 22.5771 52.8124 24.1655 53.3117C25.6271 53.8034 27.0013 54.5232 28.2368 55.4444C30.5702 57.2597 32.448 59.592 33.7213 62.2564C35.4549 65.7201 36.2849 69.5924 36.742 73.4229C36.742 73.5853 37.0152 73.5853 37.0046 73.4229C36.5581 66.9724 34.8403 60.2914 29.8759 55.8322Z" fill="#263238"/>
<path id="Vector_15" d="M19.2484 50.8542C18.7706 50.1416 18.1248 49.5568 17.3677 49.1512C16.4996 48.7007 15.7369 48.0721 15.1298 47.3067C15.0982 47.2648 15.0299 47.3067 15.0615 47.3434C15.6077 48.0461 16.2769 48.6443 17.0367 49.1093C17.8694 49.5497 18.6025 50.1561 19.1906 50.8909C19.2169 50.9223 19.2746 50.8909 19.2484 50.8542Z" fill="#263238"/>
<path id="Vector_16" d="M24.1078 67.1086L24.5228 75.5084L25.7993 101.169H45.0107L46.2873 75.5084L46.7023 67.1086H24.1078Z" fill="#1C5245"/>
<path id="Vector_17" d="M24.1078 67.1086L24.5228 75.5083H46.2873L46.7023 67.1086H24.1078Z" fill="#263238"/>
<path id="Vector_18" d="M22.7577 71.6151H48.0472V63.6031H22.7577V71.6151Z" fill="#1C5245"/>
</g>
</svg>
