<svg width="45" height="90" viewBox="0 0 45 90" fill="none" xmlns="http://www.w3.org/2000/svg">
<g id="freepik  background complete  inject 2">
<path id="Vector" d="M23.4249 54.6746C23.4249 54.6746 28.6054 36.0602 32.748 29.7425C36.8905 23.4249 44.6026 16.4845 44.6026 16.4845C44.6026 16.4845 44.4221 45.1756 23.4249 54.6746Z" fill="#ABC7FC"/>
<path id="Vector_2" d="M23.795 54.3588C25.5398 51.4424 27.1172 48.4291 28.5196 45.3336C29.1131 42.0087 29.9733 38.737 31.0918 35.5502C31.0939 35.544 31.0972 35.5383 31.1015 35.5333C31.1058 35.5284 31.111 35.5243 31.1169 35.5214C31.1227 35.5184 31.1291 35.5167 31.1357 35.5162C31.1422 35.5158 31.1488 35.5166 31.155 35.5187C31.1612 35.5207 31.167 35.524 31.1719 35.5283C31.1769 35.5326 31.1809 35.5378 31.1839 35.5437C31.1868 35.5496 31.1886 35.556 31.189 35.5625C31.1895 35.569 31.1887 35.5756 31.1866 35.5818C30.4962 38.5241 29.6974 41.4482 28.9709 44.3679C31.0647 39.8553 33.0322 35.2524 35.5458 30.9745C36.1184 28.9046 36.9238 26.9063 37.9465 25.0178C37.9735 24.9637 38.0638 24.9953 38.0367 25.0539C37.4063 26.5067 36.8667 27.9972 36.4212 29.5169C37.5954 27.6148 38.9124 25.8045 40.3607 24.1018C40.451 23.9935 40.6315 24.1018 40.5412 24.2236C37.2109 28.479 34.9095 33.3165 32.7209 38.2127C35.0749 35.6598 37.2477 32.9457 39.2235 30.09C39.2256 30.087 39.2282 30.0845 39.2313 30.0826C39.2343 30.0806 39.2377 30.0793 39.2413 30.0787C39.2449 30.078 39.2485 30.0781 39.2521 30.0789C39.2556 30.0797 39.2589 30.0812 39.2619 30.0832C39.2649 30.0853 39.2674 30.0879 39.2693 30.091C39.2713 30.094 39.2726 30.0974 39.2732 30.101C39.2738 30.1046 39.2738 30.1082 39.273 30.1118C39.2722 30.1153 39.2707 30.1186 39.2687 30.1216C37.2076 33.3218 34.8782 36.3411 32.3057 39.1468C30.7083 42.7343 29.1469 46.3399 27.2381 49.7514C31.0377 46.5384 33.9618 42.3823 36.8544 38.3706C36.8676 38.3515 36.8878 38.3383 36.9107 38.3341C36.9335 38.3299 36.9571 38.3349 36.9763 38.3481C36.9954 38.3612 37.0085 38.3815 37.0128 38.4043C37.017 38.4272 37.012 38.4507 36.9988 38.4699C34.1062 42.8697 31.1324 47.0168 26.9447 50.2749C26.0991 51.7746 25.1696 53.2255 24.1605 54.6205C24.1258 54.669 24.0732 54.7017 24.0144 54.7114C23.9556 54.7211 23.8953 54.7071 23.8468 54.6724C23.7984 54.6377 23.7657 54.5852 23.7559 54.5263C23.7462 54.4675 23.7602 54.4072 23.795 54.3588Z" fill="white"/>
<path id="Vector_3" d="M21.8185 56.3669C21.8185 56.3669 31.137 39.219 28.4294 22.563C25.7219 5.90699 22.8293 0 22.8293 0C22.8293 0 8.17689 25.8798 21.8185 56.3669Z" fill="#ABC7FC"/>
<path id="Vector_4" d="M17.9918 29.3816C18.7862 34.0965 19.9943 38.7323 21.6018 43.2353C21.6289 37.1297 21.7462 31.0242 21.9087 24.9231C20.8613 21.2199 20.2703 17.4025 20.1488 13.5559C20.1488 13.4431 20.3158 13.4476 20.3248 13.5559C20.6178 16.8522 21.1624 20.1214 21.9538 23.3347C22.0982 18.2986 22.2622 13.2641 22.4457 8.23103C22.4495 8.21659 22.458 8.20382 22.4699 8.19471C22.4817 8.1856 22.4962 8.18066 22.5111 8.18066C22.5261 8.18066 22.5406 8.1856 22.5524 8.19471C22.5643 8.20382 22.5727 8.21659 22.5766 8.23103C22.5766 16.0965 22.5766 23.9619 22.5269 31.8274C23.6678 28.7863 24.573 25.6618 25.2345 22.4818C25.2345 22.4547 25.2886 22.4593 25.2886 22.4818C25.0089 26.1551 23.8897 29.702 22.536 33.118C22.4999 38.1451 22.4457 43.1721 22.3329 48.1991C23.9123 42.8517 25.5955 37.6757 26.0513 32.0305C26.0513 32.0149 26.0574 32 26.0684 31.989C26.0794 31.978 26.0944 31.9718 26.1099 31.9718C26.1255 31.9718 26.1404 31.978 26.1514 31.989C26.1624 32 26.1686 32.0149 26.1686 32.0305C26.0468 38.2624 24.4403 44.5845 22.387 50.4419C22.3638 50.4972 22.3283 50.5466 22.2832 50.5863C22.2336 52.4274 22.184 54.2641 22.1208 56.1007C22.1135 56.1499 22.0887 56.1949 22.051 56.2274C22.0133 56.2599 21.9652 56.2777 21.9155 56.2777C21.8657 56.2777 21.8176 56.2599 21.7799 56.2274C21.7422 56.1949 21.7175 56.1499 21.7101 56.1007C21.6379 52.3417 21.6154 48.5827 21.6199 44.8192C19.5261 39.9862 18.4114 34.5981 17.9466 29.3771C17.906 29.3455 17.9873 29.3365 17.9918 29.3816Z" fill="white"/>
<path id="Vector_5" d="M18.6326 26.7281C18.9536 28.2154 19.1707 29.7233 19.2824 31.2407C19.2824 31.2527 19.2776 31.2642 19.2692 31.2726C19.2607 31.2811 19.2492 31.2859 19.2372 31.2859C19.2253 31.2859 19.2138 31.2811 19.2053 31.2726C19.1969 31.2642 19.1921 31.2527 19.1921 31.2407C18.8307 29.7564 18.5744 28.2485 18.425 26.7281C18.4114 26.6379 18.61 26.6153 18.6326 26.7281Z" fill="white"/>
<path id="Vector_6" d="M24.0792 14.1876C24.0792 14.1379 24.1649 14.156 24.1649 14.1876C24.1575 15.2457 24.0057 16.2978 23.7137 17.3148C23.7062 17.3279 23.6944 17.3381 23.6804 17.3438C23.6664 17.3495 23.6509 17.3504 23.6364 17.3462C23.6218 17.342 23.6091 17.3331 23.6002 17.3209C23.5913 17.3087 23.5868 17.2938 23.5873 17.2787C23.7769 16.2589 23.9167 15.221 24.0792 14.1876Z" fill="white"/>
<path id="Vector_7" d="M18.4204 57.6665C18.4204 57.6665 18.7995 39.756 13.6596 30.8571C8.51979 21.9583 0 17.4186 0 17.4186C0 17.4186 3.4386 48.9842 18.4204 57.6665Z" fill="#ABC7FC"/>
<path id="Vector_8" d="M9.05683 42.3508C11.2184 45.4599 13.3618 48.4563 16.0107 51.1639C14.9819 47.4996 13.7966 43.8986 12.4548 40.3607C9.57126 37.8382 6.7193 35.2208 4.95036 31.7868C4.94476 31.7755 4.94366 31.7624 4.9473 31.7504C4.95094 31.7383 4.95904 31.7281 4.96996 31.7217C4.98087 31.7154 4.99378 31.7135 5.00607 31.7163C5.01835 31.7192 5.02909 31.7266 5.0361 31.7371C6.93139 34.7967 9.47198 37.247 12.148 39.6026C10.0869 34.2692 7.69818 29.0683 4.99549 24.0296C4.98053 24.0033 4.97664 23.9721 4.98468 23.9429C4.99272 23.9137 5.01203 23.8889 5.03836 23.8739C5.06469 23.859 5.09588 23.8551 5.12508 23.8631C5.15427 23.8711 5.17908 23.8905 5.19404 23.9168C6.83533 26.5573 8.33123 29.2855 9.67505 32.0891C9.19672 30.1758 8.80863 28.2173 8.32127 26.3175C8.31828 26.3067 8.31969 26.2952 8.32519 26.2855C8.33069 26.2757 8.33983 26.2686 8.35061 26.2656C8.36138 26.2626 8.37289 26.264 8.38263 26.2695C8.39236 26.275 8.39951 26.2841 8.4025 26.2949C9.30502 28.6866 10.2075 31.331 10.5144 33.8896C12.308 37.8611 13.816 41.9553 15.027 46.1413C14.8916 43.4609 14.7247 40.7849 14.4494 38.1089C14.4494 38.0593 14.5261 38.0457 14.5396 38.1089C15.1114 41.0822 15.3715 44.1069 15.3158 47.1341C16.0559 49.8011 16.6696 52.5041 17.1795 55.2252C17.1795 55.2974 17.0847 55.329 17.0667 55.2568C16.7869 54.1151 16.4846 53.0005 16.1642 51.8543C16.1642 51.8543 16.1236 51.8543 16.1055 51.8317C13.3664 49.0339 10.7491 45.8841 9.02524 42.3778C9.02524 42.3462 9.02524 42.3327 9.05683 42.3508Z" fill="white"/>
<path id="Vector_9" d="M3.10463 27.7796C3.67773 28.3978 4.20119 29.0476 4.75624 29.6839C5.29277 30.2216 5.78758 30.7994 6.23637 31.4122C6.23637 31.4348 6.23637 31.4664 6.19576 31.4528C5.54997 30.9725 4.97434 30.4045 4.48548 29.7651C3.94616 29.1656 3.45715 28.5226 3.0234 27.8428C2.99181 27.7931 3.06402 27.7344 3.10463 27.7796Z" fill="white"/>
<path id="Vector_10" d="M33.6821 55.4644L33.0323 63.948L31.0828 89.5886H14.0658L12.1119 63.948L11.4666 55.4644H33.6821Z" fill="#263876"/>
<path id="Vector_11" d="M33.6821 55.4644L33.0323 63.948H12.1119L11.4666 55.4644H33.6821Z" fill="#C7C7C7"/>
<path id="Vector_12" d="M9.95024 57.8154H35.1892V51.3128H9.95024V57.8154Z" fill="#263876"/>
</g>
</svg>
