<svg width="46" height="154" viewBox="0 0 46 154" fill="none" xmlns="http://www.w3.org/2000/svg">
<path id="Vector" d="M27.9282 0.713605C15.2496 4.20507 26.4539 20.4242 29.6522 24.6698C26.874 28.5388 24.6494 32.3163 22.8795 35.883C21.3322 29.6225 24.3159 24.0594 22.1163 20.4439C19.6498 16.3899 14.3426 13.7818 12.438 22.2765C10.929 29.0074 18.8495 35.0577 22.2055 37.2816C19.2661 43.518 17.6911 49.0376 16.8499 53.1819C13.994 46.2298 16.7005 39.4234 13.7426 35.5828C10.5066 31.3805 4.366 29.1486 3.43157 38.8491C2.65917 46.8672 12.9811 52.7612 16.5864 54.5657C15.9084 58.3698 15.8808 60.7358 15.8799 60.9889C15.8002 65.7646 15.9848 70.3637 16.3843 74.7821C13.7251 68.7165 14.8269 62.4617 11.6828 59.3199C7.90931 55.5489 1.58019 54.1484 2.07169 63.9984C2.46037 71.792 12.508 76.2499 16.6901 77.7731C17.743 86.9794 19.7268 95.3516 22.1934 102.835C17.8814 98.2948 14.9267 88.9966 9.58285 86.1077C6.07767 84.2125 3.65034 85.3489 2.22443 86.6495C1.00607 87.7607 0.445377 89.3731 0.648002 91.0697C1.79265 100.659 17.8101 103.573 22.6628 104.239C25.8074 113.416 29.6582 121.2 33.3609 127.463C31.1111 125.133 27.7308 121.601 26.054 119.696C23.411 116.692 18.3338 113.863 14.6694 114.338C14.5168 114.358 14.3692 114.383 14.2263 114.41C11.4891 114.949 9.8602 117.493 10.1853 120.257C11.4573 131.068 30.663 130.147 34.7903 129.823C34.8169 129.865 34.8437 129.91 34.8703 129.953C44.5799 145.523 54.2731 153.633 54.6806 153.97L55.8413 152.612C55.7467 152.533 46.5249 144.806 37.2659 130.351C47.6088 117.073 43.2384 106.609 38.7925 105.555C34.1985 104.466 28.5325 108.086 31.9505 115.377C33.9331 119.606 35.039 124.412 35.6192 127.707C31.828 121.439 27.8204 113.512 24.5627 104.079C44.0324 92.3284 34.3809 80.6521 28.6666 81.4123C22.8826 82.182 21.9144 86.2529 23.5693 92.6965C24.6682 96.9771 24.4281 100.771 24.1429 102.844C21.6978 95.5127 19.7216 87.2968 18.6483 78.2597C22.9046 78.6116 33.8054 78.7693 36.4025 71.5416C39.6482 62.5083 33.3148 61.1413 28.7082 63.0803C24.4732 64.8633 24.0166 72.3916 18.4987 76.9467C17.9569 71.929 17.6906 66.6678 17.7825 61.1655C17.7824 61.076 17.8373 56.3291 19.8686 49.1339C24.1358 50.0042 34.9588 51.4527 38.4919 44.7148C42.9289 36.2527 36.7553 34.1325 31.8816 35.4679C27.5327 36.6595 26.0455 43.5975 20.3587 47.4702C22.2348 41.4173 25.4852 33.8941 31.0843 26.0347C35.5171 26.9071 45.9892 28.1677 49.4519 21.5641C53.8888 13.1019 47.7152 10.9813 42.8412 12.3173C38.4313 13.5255 36.9671 20.6459 31.0791 24.4834L30.9121 24.3612C31.7723 21.9144 33.6159 16.7298 34.6346 14.3039C35.9936 11.0667 35.8949 5.91244 33.5054 3.10262C31.1154 0.292238 27.9282 0.713605 27.9282 0.713605Z" fill="#D8E4EF"/>
</svg>
