<svg width="59" height="130" viewBox="0 0 59 130" fill="none" xmlns="http://www.w3.org/2000/svg">
<path id="Vector" d="M45.4578 0.461551C55.8858 6.62038 42.0899 18.2096 38.243 21.1788C39.7915 25.2669 40.8703 29.1398 41.5954 32.7164C44.4546 27.5686 43.1255 21.9359 45.9363 19.2802C49.088 16.3023 54.4188 15.2899 54.0942 23.2469C53.8368 29.5519 45.3692 32.9667 41.8619 34.1139C42.9919 40.3298 43.0806 45.582 42.8441 49.4427C47.0292 44.0025 46.2412 37.3403 49.7787 34.67C53.6488 31.7481 59.6302 31.2699 58.1581 40.0553C56.9414 47.317 46.3788 50.0109 42.7496 50.7275C42.449 54.2484 41.9121 56.3426 41.8529 56.5661C40.7905 60.7989 39.5353 64.8117 38.1323 68.613C41.9324 63.9071 42.4383 58.1212 45.9752 56.1126C50.2202 53.7018 56.1717 54.0029 53.3982 62.574C51.2039 69.3557 41.2255 70.8491 37.1511 71.1776C34.0318 79.0444 30.2841 85.9493 26.3185 91.9528C31.2241 88.994 36.0536 81.508 41.4835 80.2566C45.0452 79.4357 46.9307 81.0276 47.888 82.5213C48.7061 83.7975 48.8213 85.3562 48.2388 86.8039C44.9474 94.9859 30.035 93.6684 25.5686 93.0775C20.5992 100.411 15.3335 106.343 10.5598 110.97C13.1102 109.461 16.9495 107.165 18.8902 105.891C21.9496 103.883 27.1286 102.619 30.2691 103.929C30.3999 103.983 30.5251 104.041 30.6455 104.1C32.9476 105.24 33.7903 107.88 32.8459 110.239C29.1514 119.468 12.3185 113.993 8.73106 112.705C8.6973 112.736 8.66283 112.769 8.62917 112.8C-3.68585 124.18 -14.2161 128.982 -14.6579 129.18L-15.366 127.699C-15.2635 127.653 -5.24256 123.075 6.40787 112.569C0.375399 98.344 6.73841 90.1731 10.9358 90.3224C15.273 90.4767 19.4445 95.0463 14.6799 100.649C11.9164 103.899 9.7939 107.871 8.49712 110.637C13.3503 106.027 18.7892 100.007 23.9198 92.4748C9.42207 77.3805 20.7615 69.4223 25.6545 71.4804C30.607 73.5639 30.5007 77.3906 27.5026 82.6738C25.5112 86.1836 24.824 89.5896 24.5854 91.4876C28.4959 85.6129 32.1998 78.844 35.2971 71.1314C31.4346 70.4085 21.7192 67.9008 21.1283 60.8935C20.39 52.1356 26.3375 52.4673 29.9672 55.2965C33.3041 57.8979 31.9233 64.6507 35.7414 70.0093C37.413 65.7139 38.8978 61.1367 40.1218 56.26C40.1431 56.181 41.2206 51.9796 41.1244 45.1383C37.1294 44.87 27.1766 43.5201 25.6386 36.7177C23.7071 28.1745 29.6913 27.8028 33.7015 30.1644C37.2799 32.2717 36.954 38.7539 41.0841 43.5514C40.8547 37.7556 39.7539 30.3289 36.6477 22.0353C32.505 21.7287 22.9085 20.2982 21.4011 13.6313C19.4696 5.08807 25.454 4.71611 29.4643 7.0782C33.0928 9.21492 32.7033 15.8525 37.0203 20.6679L37.1976 20.6006C37.0144 18.2331 36.6078 13.2112 36.279 10.8235C35.8406 7.63752 37.1512 3.114 39.9393 1.21514C42.7281 -0.684061 45.4578 0.461551 45.4578 0.461551Z" fill="#F4F9FE"/>
</svg>
