<svg width="77" height="25" viewBox="0 0 77 25" fill="none" xmlns="http://www.w3.org/2000/svg">
<path id="Vector" opacity="0.5" d="M0 25C0.968867 20.3806 4.74298 16.9343 9.25441 16.9343C10.0826 16.9343 10.8859 17.0509 11.6518 17.2692C13.8784 12.0536 18.7108 8.43991 24.3143 8.43991C25.763 8.43991 27.1602 8.6814 28.474 9.12965C31.4909 3.65837 36.9715 0 43.2325 0C50.6815 0 57.0261 5.17846 59.4302 12.4277C61.1321 11.3886 63.091 10.7943 65.1776 10.7943C71.707 10.7943 77 16.5918 77 23.7434C77 24.1675 76.9802 24.5864 76.9438 24.9998L0 25Z" fill="white"/>
</svg>
