<svg width="35" height="141" viewBox="0 0 35 141" fill="none" xmlns="http://www.w3.org/2000/svg">
<path id="Vector" d="M-10.2041 0C1.78547 0.119243 -4.30619 16.9902 -6.13471 21.4682C-2.78332 24.2239 0.0587311 27.0281 2.4509 29.7526C2.3541 23.887 -1.57365 19.6893 -0.478344 15.9979C0.749828 11.8587 4.81921 8.32982 8.47969 15.3567C11.3801 20.9246 5.81042 28.0887 3.37124 30.8256C7.417 35.6256 10.0929 40.113 11.8013 43.5617C12.6965 36.7833 8.72308 31.4278 10.4342 27.3618C12.3061 22.9131 17.1977 19.5211 20.2845 27.8341C22.8359 34.7054 15.1132 42.2912 12.3563 44.7172C13.8414 47.9047 14.4177 49.9789 14.4776 50.2013C15.662 54.3824 16.5723 58.4698 17.251 62.4483C18.1797 56.4953 15.7493 51.2514 17.7876 47.7566C20.2338 43.5621 25.4856 40.8573 27.3504 49.6337C28.8261 56.5778 21.01 62.8368 17.6792 65.1497C18.899 73.4908 19.1037 81.315 18.6755 88.47C21.4169 83.4737 21.852 74.6092 25.8881 70.8248C28.5355 68.3424 30.9401 68.7767 32.5003 69.5885C33.8334 70.2821 34.7038 71.5696 34.921 73.1087C36.1492 81.8075 22.7112 88.0989 18.5893 89.814C17.9587 98.6163 16.3804 106.357 14.5781 112.728C16.0175 110.155 18.1729 106.262 19.2064 104.196C20.835 100.939 24.6501 97.2692 27.9909 96.8347C28.13 96.8164 28.2659 96.8037 28.3983 96.7948C30.9367 96.6318 32.9659 98.4896 33.3241 100.996C34.7251 110.799 17.5821 114.459 13.8686 115.135C13.8551 115.179 13.842 115.224 13.8285 115.268C8.90294 131.221 2.25127 140.609 1.97073 141L0.630699 140.075C0.695736 139.984 7.02119 131.043 11.8098 116.175C-0.404079 106.907 1.00676 96.6878 4.67947 94.7258C8.47452 92.6985 14.3132 94.5631 13.0015 101.771C12.2406 105.951 12.3872 110.435 12.6444 113.467C14.5238 107.073 16.2067 99.1693 16.8773 90.1153C-3.02481 84.3139 2.75803 71.7994 7.97207 71.1378C13.2496 70.4684 15.0528 73.8229 15.0975 79.8746C15.1275 83.8947 16.2244 87.1756 16.9593 88.932C17.404 81.9155 17.2291 74.2305 16.0668 66.0335C12.3973 67.3337 2.82605 70.0096 -1.1493 64.2582C-6.11758 57.0699 -0.854137 54.3935 3.65846 55.0264C7.80724 55.6086 9.96605 62.1227 15.8923 64.844C15.1992 60.3054 14.2065 55.6167 12.8418 50.7994C12.821 50.7207 11.6652 46.5591 8.19614 40.7045C4.63805 42.463 -4.56359 46.2561 -9.24962 41.1533C-15.1346 34.7445 -10.1878 31.443 -5.58056 31.4829C-1.46934 31.5186 1.46008 37.2736 7.37599 39.3555C4.31029 34.4693 -0.309853 28.61 -7.07853 23.0018C-10.7822 24.8008 -19.7183 28.3469 -24.3109 23.3457C-30.1959 16.9369 -25.2491 13.6351 -20.6414 13.6754C-16.4727 13.7115 -13.5209 19.6322 -7.43586 21.6365L-7.31717 21.49C-8.64622 19.5387 -11.4808 15.4084 -12.9446 13.5122C-14.8976 10.9818 -16.0131 6.42618 -14.5626 3.39907C-13.1116 0.371312 -10.2041 0 -10.2041 0Z" fill="#D8E4EF"/>
</svg>
