<svg width="123" height="44" viewBox="0 0 123 44" fill="none" xmlns="http://www.w3.org/2000/svg">
<path id="Vector" opacity="0.5" d="M0 44C1.71125 35.8698 8.37722 29.8044 16.3455 29.8044C17.8082 29.8044 19.227 30.0097 20.5797 30.3937C24.5125 21.2144 33.0477 14.8542 42.9448 14.8542C45.5035 14.8542 47.9712 15.2793 50.2918 16.0682C55.6203 6.43874 65.3003 0 76.3587 0C89.5155 0 100.721 9.11408 104.968 21.8728C107.974 20.044 111.433 18.9979 115.119 18.9979C126.651 18.9979 136 29.2015 136 41.7883C136 42.5348 135.965 43.272 135.901 43.9997H0V44Z" fill="white"/>
</svg>
