<svg width="32" height="32" viewBox="0 0 32 32" fill="none" xmlns="http://www.w3.org/2000/svg">
<g id="cosmetics (1) 1" clip-path="url(#clip0_1_2178)">
<g id="Group">
<path id="Vector" d="M15.0537 27.0938H4.88562L4.96812 27.735L4.96831 27.7353V31.2259C4.96831 31.6534 5.31487 32 5.74237 32H14.1972C14.6247 32 14.9712 31.6534 14.9712 31.2259V27.7353L15.0537 27.0938Z" fill="#FE4FB7"/>
<g id="Group_2">
<path id="Vector_2" d="M14.971 27.7351V31.2462C14.971 31.6626 14.6337 31.9999 14.2174 31.9999H12.5084C12.9249 31.9999 13.2622 31.6626 13.2622 31.2462V27.7351H14.971Z" fill="#FE2AA8"/>
<path id="Vector_3" d="M11.9608 32H7.97852V30.6141C7.97852 30.2019 8.3127 29.8677 8.72495 29.8677H11.2144C11.6266 29.8677 11.9608 30.2019 11.9608 30.6141V32Z" fill="#EFEDEF"/>
<path id="Vector_4" d="M11.9611 30.5947V31.9999H10.926V30.5947C10.926 30.1929 10.6004 29.8678 10.1985 29.8678H11.2335C11.6353 29.8678 11.9611 30.1929 11.9611 30.5947Z" fill="#E5E1E5"/>
<path id="Vector_5" d="M9.96979 0H3.25235C2.97004 0 2.74735 0.250375 2.76848 0.543938L4.96835 27.7353H9.96979H14.9712L17.1711 0.543938C17.1922 0.250375 16.9695 0 16.6872 0L9.96979 0Z" fill="#FEAEE1"/>
<path id="Vector_6" d="M17.1714 0.543687L14.9711 27.7351H13.2622L15.4625 0.543687C15.4831 0.25025 15.2609 0 14.9785 0H16.6874C16.9693 0 17.1921 0.25025 17.1714 0.543687Z" fill="#FE93D3"/>
<path id="Vector_7" d="M10.193 11.1714C10.0723 11.0524 9.86722 11.0524 9.74647 11.1714C8.99378 11.9133 6.62859 14.4822 7.21366 16.951C7.40378 17.7533 7.96859 18.4769 8.83341 18.9156L8.84291 18.9205C9.54497 19.2754 10.3945 19.2754 11.0965 18.9205L11.106 18.9156C11.9709 18.4769 12.5357 17.7532 12.7258 16.951C13.3109 14.4823 10.9457 11.9133 10.193 11.1714Z" fill="#EFEDEF"/>
<path id="Vector_8" d="M12.7257 16.951C12.5357 17.7535 11.9707 18.4767 11.1062 18.9157L11.0965 18.9206C10.5601 19.1915 9.9379 19.256 9.36072 19.1124C9.53909 19.068 9.71322 19.004 9.87884 18.9206L9.88859 18.9157C10.7531 18.4768 11.3181 17.7535 11.508 16.951C12.0133 14.8183 10.3172 12.6101 9.36134 11.5709C9.51172 11.4071 9.64447 11.2726 9.74672 11.1715C9.86728 11.0522 10.0725 11.0522 10.193 11.1715C10.9455 11.913 13.3108 14.4823 12.7257 16.951Z" fill="#E5E1E5"/>
<path id="Vector_9" d="M17.1714 0.5215L17.0167 2.58419H2.92378L2.76909 0.5215C2.74796 0.24 2.97065 0 3.2529 0H16.6875C16.9698 0 17.1925 0.24 17.1714 0.5215Z" fill="#FE4FB7"/>
<path id="Vector_10" d="M17.1721 0.477937V0.484625C17.1721 0.496813 17.1721 0.509 17.1708 0.52175L17.0162 2.58444H15.3158L15.4625 0.543688C15.4832 0.25025 15.261 0 14.9785 0H16.6875C16.7045 0 16.721 0.000625 16.7374 0.0024375C16.9742 0.028 17.1587 0.23075 17.1721 0.477937Z" fill="#FE2AA8"/>
<g id="Group_3">
<path id="Vector_11" d="M28.3196 24.5509H14.885V21.4778L14.9454 21.1718L28.2618 21.1602L28.3196 21.4778V24.5509Z" fill="#7CA1B1"/>
<path id="Vector_12" d="M26.7585 21.4778H28.3198V23.9862H26.7585V21.4778Z" fill="#678D98"/>
<path id="Vector_13" d="M27.8149 32H15.3897C14.6066 32 13.9717 31.3651 13.9717 30.5819V24.42C13.9717 24.1805 14.1659 23.9862 14.4055 23.9862H28.7992C29.0388 23.9862 29.233 24.1805 29.233 24.42V30.5819C29.2329 31.3651 28.5981 32 27.8149 32Z" fill="#FDB441"/>
<path id="Vector_14" d="M27.5391 23.986H28.7857C29.0326 23.986 29.2331 24.1865 29.2331 24.434V30.537C29.2331 31.3448 28.5781 31.9999 27.7703 31.9999H26.0643C26.8722 31.9999 27.5272 31.3448 27.5272 30.537V24.434L27.5391 23.986Z" fill="#FEA613"/>
<path id="Vector_15" d="M14.885 21.4777C14.8811 21.3013 14.8784 21.1248 14.8765 20.9483C14.8707 20.3876 15.0113 19.8971 15.4023 19.4798C15.8443 19.008 16.6651 18.6399 17.2907 18.4998C18.2679 18.2809 19.2702 18.21 20.2584 18.0582C20.9977 17.9446 21.7377 17.7827 22.4295 17.492C23.0143 17.2462 23.5563 16.9049 24.1196 16.6044C24.2928 16.512 24.5106 16.5911 24.5757 16.7763C24.6056 16.8614 24.6395 16.9448 24.6795 17.0255C24.8195 17.3074 24.9567 17.5958 25.1608 17.838C25.2703 17.9681 25.3924 18.087 25.5196 18.1998C26.056 18.6752 26.6636 19.0606 27.2567 19.4635C27.3438 19.5227 27.4306 19.5823 27.5168 19.6429C27.9846 19.9716 28.289 20.4234 28.3117 21.0066C28.313 21.0389 28.3292 21.4778 28.3197 21.4778C28.319 21.4777 14.8921 21.4777 14.885 21.4777Z" fill="#FEE8C7"/>
<path id="Vector_16" d="M28.3193 21.4779C28.3193 21.4779 27.7127 21.4779 26.7572 21.4779C26.7546 21.3496 26.7488 21.191 26.7475 21.1717C26.7172 20.3993 26.1305 20.0273 25.5128 19.6997C24.7321 19.2845 24.1686 18.6823 23.5967 18.0028C23.3865 17.7541 23.2472 17.4555 23.103 17.1662C23.4436 16.9843 23.7777 16.7869 24.1196 16.6043C24.293 16.5122 24.5103 16.5908 24.5754 16.7765C24.6057 16.8609 24.6392 16.9447 24.6792 17.0253C24.8191 17.3071 24.9565 17.5959 25.1608 17.8377C25.2705 17.968 25.3923 18.0866 25.5193 18.1994C26.0558 18.6752 26.6637 19.0608 27.2569 19.4637C27.344 19.5224 27.4303 19.5823 27.5167 19.643C27.9848 19.9718 28.2891 20.4231 28.3117 21.0066C28.3129 21.0388 28.329 21.4779 28.3193 21.4779Z" fill="#FEDBA6"/>
<path id="Vector_17" d="M25.8595 29.6857H17.3449C17.0707 29.6857 16.8484 29.4634 16.8484 29.1892V26.7969C16.8484 26.5227 17.0707 26.3004 17.3449 26.3004H25.8596C26.1338 26.3004 26.3561 26.5227 26.3561 26.7969V29.1892C26.356 29.4634 26.1338 29.6857 25.8595 29.6857Z" fill="#EFEDEF"/>
<path id="Vector_18" d="M26.3563 26.8124V29.1734C26.3563 29.4564 26.1268 29.6859 25.8437 29.6859H24.5117C24.7941 29.6859 25.0237 29.4564 25.0237 29.1734V26.8124C25.0237 26.53 24.7942 26.3004 24.5117 26.3004H25.8437C26.1268 26.3004 26.3563 26.5299 26.3563 26.8124Z" fill="#E5E1E5"/>
</g>
</g>
</g>
</g>
<defs>
<clipPath id="clip0_1_2178">
<rect width="32" height="32" fill="white"/>
</clipPath>
</defs>
</svg>
