<svg width="32" height="32" viewBox="0 0 32 32" fill="none" xmlns="http://www.w3.org/2000/svg">
<g id="dress 1">
<g id="Group">
<g id="Group_2">
<path id="Vector" d="M29.9998 26.3407C30.2646 26.761 30.1663 27.2333 29.7672 27.4315C26.8144 28.8973 21.8106 29.8763 15.9999 29.8763C10.1891 29.8763 5.18539 28.8973 2.23254 27.4315C1.83342 27.2334 1.7351 26.7611 2.00001 26.3408L11.2333 7.53711H20.7665L29.9998 26.3407Z" fill="url(#paint0_linear_1_2221)"/>
<path id="Vector_2" d="M12.2358 7.53625L4.50421 28.3333C3.65087 28.0596 2.88971 27.7566 2.2329 27.4305C1.83352 27.2323 1.73539 26.7601 2.0003 26.3401L11.2334 7.53625H12.2358Z" fill="url(#paint1_linear_1_2221)"/>
<path id="Vector_3" d="M27.4094 29.2172C24.0827 30.9449 7.9171 30.9449 4.59035 29.2172C4.36014 29.0976 4.28328 28.8255 4.39892 28.5676L12.2356 7.53625H19.7642L27.6009 28.5676C27.7164 28.8256 27.6396 29.0977 27.4094 29.2172Z" fill="url(#paint2_linear_1_2221)"/>
<path id="Vector_4" d="M27.4096 29.217C26.4423 29.7194 24.3513 30.0778 21.7773 30.2868C21.7853 30.2718 21.7923 30.2575 21.7991 30.2426L17.8152 7.53625H19.764L27.6008 28.5676C27.7162 28.8256 27.6397 29.0974 27.4096 29.217Z" fill="url(#paint3_linear_1_2221)"/>
<path id="Vector_5" d="M21.7996 30.2426C20.713 32.5857 11.2869 32.5857 10.2003 30.2426L14.1845 7.53613H17.8154L21.7996 30.2426Z" fill="url(#paint4_linear_1_2221)"/>
<path id="Vector_6" d="M29.7671 27.4305C29.1102 27.7566 28.3491 28.0596 27.4957 28.3333L19.7642 7.53625H20.7666L29.9997 26.3401C30.2646 26.7601 30.1664 27.2323 29.7671 27.4305Z" fill="url(#paint5_linear_1_2221)"/>
</g>
<path id="Vector_7" d="M11.231 1.74377H20.7688V7.53615H11.231V1.74377Z" fill="url(#paint6_linear_1_2221)"/>
<path id="Vector_8" d="M20.769 1.74414V7.53602H14.6794L11.2306 4.0878V1.74414H20.769Z" fill="url(#paint7_linear_1_2221)"/>
<path id="Vector_9" d="M22.2106 0.190783C22.1605 0.0287748 21.9738 -0.0470841 21.8232 0.0307826C20.5826 0.672038 18.6361 1.1009 16.4229 1.14928C16.2828 1.15267 16.142 1.15405 15.9999 1.15405C15.8578 1.15405 15.717 1.15267 15.577 1.14928C13.3638 1.1009 11.4172 0.6721 10.1767 0.0307826C10.026 -0.0470841 9.83937 0.0287748 9.78923 0.190783C9.70001 0.479096 9.64831 0.783787 9.63958 1.09908C9.58625 3.02768 11.0615 4.56474 12.9907 4.58702C13.7228 4.59549 14.4022 4.37224 14.9601 3.98598C15.5824 3.55518 16.4176 3.55518 17.0397 3.98598C17.5977 4.37224 18.2771 4.59549 19.0091 4.58702C20.9383 4.56468 22.4136 3.02768 22.3603 1.09908C22.3516 0.783787 22.2999 0.479096 22.2106 0.190783Z" fill="url(#paint8_linear_1_2221)"/>
<path id="Vector_10" d="M22.3602 1.09908C22.3515 0.783787 22.2998 0.479096 22.2106 0.190783C22.1604 0.0287748 21.9738 -0.0470841 21.8231 0.0307826C20.5826 0.6721 18.6361 1.1009 16.4229 1.14928C16.2827 1.15267 16.142 1.15405 15.9999 1.15405C15.8587 1.15405 15.7189 1.15267 15.5796 1.14934C15.578 1.19332 15.5763 1.23725 15.5763 1.28161C15.5763 2.09924 15.8587 2.85055 16.3309 3.44437C16.4791 3.63085 16.6721 3.77447 16.8813 3.88848C16.9354 3.91797 16.9883 3.95047 17.0398 3.98605C17.5849 4.36346 18.2459 4.58526 18.9588 4.58733C20.8598 4.59279 22.4127 2.99938 22.3602 1.09908Z" fill="url(#paint9_linear_1_2221)"/>
<path id="Vector_11" d="M29.9238 27.3254L10.8712 8.27289L11.2333 7.53589H20.7664L29.9996 26.34C30.2256 26.6987 30.187 27.094 29.9238 27.3254Z" fill="url(#paint10_linear_1_2221)"/>
<path id="Vector_12" d="M10.7047 7.72986C10.6376 8.0555 10.8516 8.37105 11.1784 8.43241C12.5757 8.69463 14.2339 8.84615 15.9998 8.84615C17.7658 8.84615 19.424 8.69463 20.8212 8.43241C21.148 8.37111 21.3621 8.0555 21.2949 7.72986L21.1543 7.04751C21.0912 6.74119 20.8011 6.53789 20.4913 6.58031C19.5265 6.71251 18.3245 6.8028 17.0056 6.83373C16.4477 6.84653 15.5519 6.84653 14.994 6.83373C13.6751 6.80274 12.4731 6.71245 11.5083 6.58031C11.1984 6.53783 10.9083 6.74119 10.8452 7.04751L10.7047 7.72986Z" fill="url(#paint11_linear_1_2221)"/>
</g>
</g>
<defs>
<linearGradient id="paint0_linear_1_2221" x1="11.421" y1="17.2718" x2="17.7807" y2="30.5158" gradientUnits="userSpaceOnUse">
<stop stop-color="#B063DE"/>
<stop offset="1" stop-color="#793981"/>
</linearGradient>
<linearGradient id="paint1_linear_1_2221" x1="8.1881" y1="18.2727" x2="16.3807" y2="24.9502" gradientUnits="userSpaceOnUse">
<stop stop-color="#662D90" stop-opacity="0"/>
<stop offset="0.1835" stop-color="#5C2D85" stop-opacity="0.184"/>
<stop offset="0.6917" stop-color="#442D6C" stop-opacity="0.692"/>
<stop offset="1" stop-color="#3B2D63"/>
</linearGradient>
<linearGradient id="paint2_linear_1_2221" x1="9.79399" y1="14.8474" x2="22.2116" y2="33.506" gradientUnits="userSpaceOnUse">
<stop stop-color="#B063DE"/>
<stop offset="1" stop-color="#793981"/>
</linearGradient>
<linearGradient id="paint3_linear_1_2221" x1="21.9893" y1="18.678" x2="16.3356" y2="21.4056" gradientUnits="userSpaceOnUse">
<stop stop-color="#662D90" stop-opacity="0"/>
<stop offset="0.1835" stop-color="#5C2D85" stop-opacity="0.184"/>
<stop offset="0.6917" stop-color="#442D6C" stop-opacity="0.692"/>
<stop offset="1" stop-color="#3B2D63"/>
</linearGradient>
<linearGradient id="paint4_linear_1_2221" x1="13.9978" y1="19.2014" x2="19.9079" y2="21.1452" gradientUnits="userSpaceOnUse">
<stop stop-color="#B063DE"/>
<stop offset="1" stop-color="#793981"/>
</linearGradient>
<linearGradient id="paint5_linear_1_2221" x1="24.981" y1="17.3384" x2="21.1719" y2="19.9912" gradientUnits="userSpaceOnUse">
<stop stop-color="#662D90" stop-opacity="0"/>
<stop offset="0.1835" stop-color="#5C2D85" stop-opacity="0.184"/>
<stop offset="0.6917" stop-color="#442D6C" stop-opacity="0.692"/>
<stop offset="1" stop-color="#3B2D63"/>
</linearGradient>
<linearGradient id="paint6_linear_1_2221" x1="13.3364" y1="3.3082" x2="19.292" y2="6.28602" gradientUnits="userSpaceOnUse">
<stop stop-color="#B063DE"/>
<stop offset="1" stop-color="#793981"/>
</linearGradient>
<linearGradient id="paint7_linear_1_2221" x1="17.8371" y1="5.58339" x2="12.6937" y2="-1.88366" gradientUnits="userSpaceOnUse">
<stop stop-color="#662D90" stop-opacity="0"/>
<stop offset="0.1835" stop-color="#5C2D85" stop-opacity="0.184"/>
<stop offset="0.6917" stop-color="#442D6C" stop-opacity="0.692"/>
<stop offset="1" stop-color="#3B2D63"/>
</linearGradient>
<linearGradient id="paint8_linear_1_2221" x1="15.6808" y1="0.3201" x2="18.151" y2="7.22319" gradientUnits="userSpaceOnUse">
<stop stop-color="#B063DE"/>
<stop offset="1" stop-color="#793981"/>
</linearGradient>
<linearGradient id="paint9_linear_1_2221" x1="19.1516" y1="1.97921" x2="20.6405" y2="7.9799" gradientUnits="userSpaceOnUse">
<stop stop-color="#662D90" stop-opacity="0"/>
<stop offset="0.1835" stop-color="#5C2D85" stop-opacity="0.184"/>
<stop offset="0.6917" stop-color="#442D6C" stop-opacity="0.692"/>
<stop offset="1" stop-color="#3B2D63"/>
</linearGradient>
<linearGradient id="paint10_linear_1_2221" x1="20.5094" y1="14.0499" x2="20.5094" y2="3.08482" gradientUnits="userSpaceOnUse">
<stop stop-color="#662D90" stop-opacity="0"/>
<stop offset="0.1835" stop-color="#5C2D85" stop-opacity="0.184"/>
<stop offset="0.6917" stop-color="#442D6C" stop-opacity="0.692"/>
<stop offset="1" stop-color="#3B2D63"/>
</linearGradient>
<linearGradient id="paint11_linear_1_2221" x1="15.9998" y1="6.9889" x2="15.9998" y2="8.72462" gradientUnits="userSpaceOnUse">
<stop stop-color="#FFDA2D"/>
<stop offset="1" stop-color="#FDBF00"/>
</linearGradient>
</defs>
</svg>
