<svg width="26" height="32" viewBox="0 0 26 32" fill="none" xmlns="http://www.w3.org/2000/svg">
<g id="food (1) 1" clip-path="url(#clip0_1_2202)">
<g id="Group">
<path id="Vector" d="M6.54785 11.624C6.3523 11.624 6.16083 11.5254 6.0505 11.3462C5.69209 10.7654 5.02254 10.0935 4.25376 10.118C3.92686 10.1005 3.66184 9.87399 3.6525 9.55235C3.64258 9.22954 3.89592 8.96044 4.21815 8.95052C5.44809 8.91374 6.49707 9.84597 7.04403 10.7338C7.21331 11.0082 7.12809 11.3678 6.85373 11.5371C6.75858 11.596 6.65234 11.624 6.54785 11.624Z" fill="#436B1C"/>
<g id="Group_2">
<path id="Vector_2" d="M18.4952 3.85104C18.417 2.71392 17.4719 1.81496 16.315 1.81496C16.3115 1.81496 16.3085 1.81555 16.305 1.81555C16.3255 1.64334 16.3138 1.46122 16.2583 1.2715C16.1019 0.737964 15.6326 0.328179 15.0803 0.262216C14.6274 0.208512 14.2117 0.370792 13.9205 0.658575C13.6432 0.408151 13.2801 0.251709 12.8773 0.251709C12.014 0.251709 11.3146 0.951612 11.3146 1.81438C11.3146 1.8173 11.3152 1.81963 11.3152 1.82255C10.2663 1.90194 9.43909 2.77696 9.43909 3.84637C9.43909 4.00982 9.46069 4.16802 9.49688 4.32037C8.24827 4.37232 7.25124 5.39854 7.25124 6.66C7.25124 7.0873 7.3674 7.48657 7.56704 7.83156C7.18353 8.14678 6.93835 8.62486 6.93835 9.16015C6.93835 9.64933 7.14558 10.0877 7.47364 10.4C8.88162 9.24946 10.3608 13.0975 12.1027 16.1697C12.6812 17.1901 18.9313 16.1031 19.4292 16.7371C19.9966 16.2269 20.3632 7.34239 20.379 6.56193C20.4035 5.30981 19.6084 4.24157 18.4952 3.85104Z" fill="#88C057"/>
</g>
<path id="Vector_3" d="M19.2944 15.4884L19.7107 15.2392C20.4812 14.7768 21.4432 14.7768 22.2131 15.2392L22.6293 15.4884C23.3999 15.9507 24.3619 15.9507 25.1318 15.4884L26.3081 14.9654C26.4809 14.4832 26.6011 14.1341 26.649 13.9794C27.7464 10.4496 28.4533 6.73291 28.5496 3.02558C28.5882 1.53471 27.3553 -0.790325 25.307 0.266242C23.2936 1.30413 21.8518 5.28465 20.8384 7.1748C19.3989 9.86058 18.2606 12.7816 17.4498 15.7581C18.0674 15.914 18.7317 15.8258 19.2944 15.4884Z" fill="#EEAF4B"/>
<path id="Vector_4" d="M4.11835 14.8889L4.90348 15.36C5.80536 15.9011 6.93197 15.9011 7.83385 15.36L8.03582 15.2386C8.80636 14.7763 9.76836 14.7763 10.5383 15.2386L10.9545 15.4879C11.4069 15.7593 11.9253 15.8667 12.432 15.8194C12.8056 14.6128 12.6801 13.1044 12.101 12.0835C10.1536 8.64818 8.53375 9.34809 6.97517 10.8395C6.6763 11.1256 6.31087 11.3351 5.91276 11.449C4.20358 11.9376 2.94212 12.7367 3.65953 14.9129C3.7862 14.8206 3.96249 14.7955 4.11835 14.8889Z" fill="#ED3F32"/>
<path id="Vector_5" d="M20.7765 14.2176C20.7146 14.2176 20.651 14.2076 20.5891 14.1866C20.2838 14.0827 20.1204 13.7512 20.2243 13.4459C20.6136 12.3006 21.864 11.6876 23.0075 12.0729C23.544 12.2556 24.1283 11.9673 24.3104 11.4308C24.4138 11.1255 24.7442 10.9609 25.0512 11.0654C25.3565 11.1693 25.52 11.5008 25.416 11.8061C25.0273 12.952 23.7781 13.5673 22.6328 13.1791C22.0969 12.997 21.5126 13.2859 21.3299 13.8212C21.2464 14.0652 21.0193 14.2176 20.7765 14.2176Z" fill="#A46F3E"/>
<path id="Vector_6" d="M22.1571 10.1507C22.0952 10.1507 22.0316 10.1408 21.9697 10.1198C21.6644 10.0159 21.501 9.6843 21.6049 9.379C21.7934 8.82387 22.1869 8.37497 22.7122 8.11579C23.2376 7.85661 23.8324 7.8175 24.3882 8.00605C24.9258 8.18934 25.5089 7.90039 25.6911 7.36335C25.7944 7.05747 26.1259 6.89344 26.4312 6.99793C26.7365 7.10183 26.9 7.4334 26.7961 7.73869C26.4073 8.88516 25.1581 9.49925 24.0128 9.11223C23.753 9.0235 23.474 9.0416 23.2283 9.16302C22.9825 9.28444 22.7986 9.494 22.7099 9.75434C22.6276 9.99776 22.4005 10.1507 22.1571 10.1507Z" fill="#A46F3E"/>
<path id="Vector_7" d="M23.5382 6.08316C23.4763 6.08316 23.4127 6.07324 23.3502 6.05222C23.0449 5.94832 22.8815 5.61675 22.9854 5.31146C23.3263 4.30626 24.4231 3.76688 25.4283 4.10662C25.621 4.172 25.8264 4.15916 26.008 4.06984C26.1895 3.98053 26.3255 3.82526 26.3909 3.63321C26.4942 3.32791 26.8252 3.16388 27.1317 3.26779C27.437 3.37169 27.6004 3.70326 27.4965 4.00855C27.3307 4.49597 26.9857 4.89 26.5246 5.11707C26.0628 5.34473 25.5404 5.378 25.053 5.21281C24.6572 5.07796 24.2252 5.29103 24.091 5.68739C24.0081 5.93022 23.781 6.08316 23.5382 6.08316Z" fill="#A46F3E"/>
<g id="Group_3">
<path id="Vector_8" d="M13.642 8.22782C13.0904 8.96158 12.22 9.83018 12.5551 11.3642L13.4564 15.4884H13.4569L13.8732 15.2391C14.6437 14.7768 15.6057 14.7768 16.3756 15.2391L16.7919 15.4884C17.1304 15.6915 17.4497 15.7586 17.4497 15.7586C18.058 13.527 18.8501 11.3263 19.815 9.23302C19.3632 8.1029 18.3983 7.72463 17.6978 7.33762C17.6937 7.33528 17.6896 7.33295 17.6861 7.33119C17.2431 7.07727 17.2156 6.47076 17.549 6.08433C17.6803 5.93197 17.741 5.72241 17.6955 5.51226L17.6248 5.19004C17.5472 4.83513 17.1935 4.60863 16.8391 4.68627L13.2918 5.46031C12.9368 5.53795 12.7103 5.89169 12.788 6.24602L12.8586 6.56825C12.9053 6.78306 13.0536 6.94943 13.2416 7.03057C13.6729 7.21678 13.9362 7.69837 13.7155 8.11341C13.6945 8.15252 13.67 8.19046 13.642 8.22782Z" fill="#DAE7EF"/>
</g>
<path id="Vector_9" d="M17.3639 6.36229L13.3484 7.23965C12.9053 7.33655 12.4629 7.05285 12.366 6.60979L12.3082 6.34594C12.2113 5.90289 12.495 5.46041 12.938 5.36351L16.9536 4.48615C17.3966 4.38925 17.8391 4.67295 17.936 5.116L17.9938 5.37985C18.0907 5.8235 17.807 6.26539 17.3639 6.36229Z" fill="white"/>
<path id="Vector_10" d="M27.3284 14.7873L26.3098 29.3977C26.235 30.8565 25.0308 32.0006 23.5703 32.0006H7.18412C5.72361 32.0006 4.51935 30.8565 4.44463 29.3977L3.45053 15.2666C3.4336 14.9344 3.79377 14.7179 4.07921 14.8889L4.86434 15.36C5.76622 15.9011 6.89284 15.9011 7.79471 15.36L7.99669 15.2385C8.76722 14.7762 9.72923 14.7762 10.4992 15.2385L10.9154 15.4884C11.6859 15.9507 12.6479 15.9507 13.4179 15.4884L13.8341 15.2385C14.6046 14.7762 15.5666 14.7762 16.3366 15.2385L16.7528 15.4884C17.5233 15.9507 18.4853 15.9507 19.2553 15.4884L19.6715 15.2385C20.442 14.7762 21.404 14.7762 22.174 15.2385L22.5902 15.4884C23.3607 15.9507 24.3227 15.9507 25.0927 15.4884L27.0698 14.6099C27.1953 14.5538 27.3354 14.6501 27.3284 14.7873Z" fill="#FBD490"/>
<path id="Vector_11" d="M10.4548 24.5171H6.36865C6.04643 24.5171 5.78491 24.2562 5.78491 23.9333C5.78491 23.6105 6.04643 23.3496 6.36865 23.3496H10.4548C10.777 23.3496 11.0386 23.6105 11.0386 23.9333C11.0386 24.2562 10.777 24.5171 10.4548 24.5171Z" fill="#E0B877"/>
<path id="Vector_12" d="M11.6223 26.852H6.36865C6.04643 26.852 5.78491 26.5911 5.78491 26.2683C5.78491 25.9455 6.04643 25.6846 6.36865 25.6846H11.6223C11.9445 25.6846 12.206 25.9455 12.206 26.2683C12.206 26.5911 11.9445 26.852 11.6223 26.852Z" fill="#E0B877"/>
<path id="Vector_13" d="M12.7898 29.187H6.36865C6.04643 29.187 5.78491 28.9261 5.78491 28.6033C5.78491 28.2805 6.04643 28.0195 6.36865 28.0195H12.7898C13.112 28.0195 13.3735 28.2805 13.3735 28.6033C13.3735 28.9261 13.112 29.187 12.7898 29.187Z" fill="#E0B877"/>
<path id="Vector_14" d="M16.2922 29.187H15.1248C14.8025 29.187 14.541 28.9261 14.541 28.6033C14.541 28.2805 14.8025 28.0195 15.1248 28.0195H16.2922C16.6145 28.0195 16.876 28.2805 16.876 28.6033C16.876 28.9261 16.6145 29.187 16.2922 29.187Z" fill="#E0B877"/>
</g>
</g>
<defs>
<clipPath id="clip0_1_2202">
<rect width="32" height="32" fill="white"/>
</clipPath>
</defs>
</svg>
