<svg width="32" height="32" viewBox="0 0 32 32" fill="none" xmlns="http://www.w3.org/2000/svg">
<g id="smartwatch 1">
<path id="Vector" d="M16.0544 23.3288C12.0069 23.3288 8.72568 20.0476 8.72568 16C8.72568 11.9525 12.0069 8.67126 16.0544 8.67126C20.102 8.67126 23.3832 11.9525 23.3832 16C23.3832 20.0476 20.102 23.3288 16.0544 23.3288Z" fill="white"/>
<path id="Vector_2" d="M21.3851 19.1503C21.8402 18.196 22.0952 17.1278 22.0952 16C22.0952 12.1694 19.1562 9.02583 15.4104 8.69958C15.6226 8.68114 15.8373 8.67114 16.0544 8.67114C20.1019 8.67114 23.3832 11.9523 23.3832 16C23.3832 17.1278 23.1282 18.1959 22.6731 19.1503H21.3851Z" fill="#EEF6FF"/>
<g id="Group">
<path id="Vector_3" d="M6.06581 12.4243L7.76781 9.65558C7.85781 9.50914 8.05125 9.46296 8.19769 9.55296L9.0415 10.0717C8.20675 11.0576 7.57525 12.2209 7.2135 13.4966L6.16837 12.8541C6.022 12.7641 5.97581 12.5707 6.06581 12.4243Z" fill="#B7092B"/>
<path id="Vector_4" d="M24.3354 19.9777L24.6088 20.1457C24.7553 20.2357 24.8014 20.4292 24.7114 20.5756L23.7554 22.1308C23.6654 22.2772 23.472 22.3234 23.3256 22.2333L22.9854 22.0242C23.5214 21.4083 23.9771 20.7207 24.3354 19.9777Z" fill="#B7092B"/>
</g>
<path id="Vector_5" d="M11.375 26.4704H20.625C20.6665 26.4704 20.7084 26.4657 20.75 26.4572V31.6875C20.75 31.8594 20.6094 32 20.4375 32H11.5625C11.3906 32 11.25 31.8594 11.25 31.6875V26.4572C11.2916 26.4657 11.3335 26.4704 11.375 26.4704Z" fill="#2E4C89"/>
<g id="Group_2">
<path id="Vector_6" d="M11.25 26.4572C11.2916 26.4657 11.3335 26.4704 11.375 26.4704H11.25V26.4572Z" fill="#293D7C"/>
<path id="Vector_7" d="M19.8125 31.6875V26.4704H20.625C20.6665 26.4704 20.7084 26.4657 20.75 26.4572V31.6875C20.75 31.8594 20.6094 32 20.4375 32H19.5C19.6719 32 19.8125 31.8594 19.8125 31.6875Z" fill="#293D7C"/>
</g>
<path id="Vector_8" d="M20.625 5.52962H11.375C11.3335 5.52962 11.2916 5.53437 11.25 5.54287V0.3125C11.25 0.140625 11.3906 0 11.5625 0H20.4375C20.6094 0 20.75 0.140625 20.75 0.3125V5.54287C20.7084 5.53437 20.6665 5.52962 20.625 5.52962Z" fill="#2E4C89"/>
<g id="Group_3">
<path id="Vector_9" d="M19.5 0.3125C19.5 0.140625 19.3594 0 19.1875 0H20.4375C20.6094 0 20.75 0.140625 20.75 0.3125V5.54287C20.7084 5.53437 20.6665 5.52962 20.625 5.52962H19.5V0.3125Z" fill="#293D7C"/>
<path id="Vector_10" d="M11.375 5.52966C11.3335 5.52966 11.2916 5.53441 11.25 5.54291V5.52966H11.375Z" fill="#293D7C"/>
</g>
<path id="Vector_11" d="M16.0544 6.81248C13.5807 6.81248 11.3324 7.7956 9.67901 9.39117L10.5855 6.06998C10.676 5.73835 11.0313 5.46704 11.3751 5.46704H20.6251C20.9688 5.46704 21.3241 5.73835 21.4146 6.06998L22.2834 9.25304C20.6449 7.7391 18.4559 6.81248 16.0544 6.81248Z" fill="#B7092B"/>
<path id="Vector_12" d="M20.1108 6.0701C20.0203 5.73848 19.6649 5.46716 19.3212 5.46716H20.6251C20.9688 5.46716 21.3241 5.73848 21.4146 6.0701L22.2834 9.25316C21.7867 8.79423 21.2391 8.38966 20.6506 8.0481L20.1108 6.0701Z" fill="#930628"/>
<path id="Vector_13" d="M16.0544 25.1875C18.4559 25.1875 20.6448 24.2609 22.2834 22.7469L21.4146 25.93C21.3241 26.2616 20.9688 26.5329 20.6251 26.5329H11.3751C11.0313 26.5329 10.676 26.2616 10.5855 25.93L9.67901 22.6088C11.3323 24.2044 13.5806 25.1875 16.0544 25.1875Z" fill="#B7092B"/>
<path id="Vector_14" d="M20.1107 25.9299L20.6506 23.9519C21.2391 23.6103 21.7867 23.2058 22.2834 22.7468L21.4146 25.9299C21.3241 26.2615 20.9688 26.5328 20.6251 26.5328H19.3212C19.6649 26.5328 20.0202 26.2615 20.1107 25.9299Z" fill="#930628"/>
<path id="Vector_15" d="M12.6526 14.9943C11.7458 14.9943 11.0107 14.2592 11.0107 13.3524C11.0107 12.4457 11.7458 11.7106 12.6526 11.7106C13.5593 11.7106 14.2944 12.4457 14.2944 13.3524C14.2944 14.2592 13.5593 14.9943 12.6526 14.9943Z" fill="white"/>
<path id="Vector_16" d="M13.25 13.3523C13.25 12.6281 12.7809 12.0138 12.1302 11.7955C12.2944 11.7404 12.4699 11.7101 12.6526 11.7101C13.5595 11.7101 14.2948 12.4453 14.2948 13.3523C14.2948 14.2592 13.5595 14.9945 12.6526 14.9945C12.4699 14.9945 12.2944 14.9641 12.1302 14.9091C12.7809 14.6909 13.25 14.0766 13.25 13.3523Z" fill="#EEF6FF"/>
<g id="Group_4">
<path id="Vector_17" d="M18.3668 17.75C18.5366 17.75 18.6963 17.7063 18.8356 17.6298V19.25H17.8981V17.6298C18.0373 17.7063 18.197 17.75 18.3668 17.75Z" fill="#0F9390"/>
<path id="Vector_18" d="M12.1839 17.542V15.4102C11.4069 15.2332 10.7918 14.6269 10.6026 13.8546H9.04497C9.14359 13.532 9.26397 13.219 9.40415 12.9171H10.587C10.7562 12.113 11.3845 11.4765 12.1839 11.2945V9.77598C12.4827 9.58979 12.7958 9.42454 13.1214 9.28223V11.2945C13.9208 11.4765 14.549 12.113 14.7183 12.9171H18.116V11.8624C18.2552 11.939 18.4149 11.9827 18.5847 11.9827C18.7545 11.9827 18.9142 11.9389 19.0535 11.8624V12.917H22.7046C22.8448 13.219 22.9652 13.532 23.0638 13.8545H21.2822V16.4247C21.2822 16.8555 20.9318 17.206 20.501 17.206H19.241C19.3059 17.0754 19.3433 16.9289 19.3433 16.7735C19.3433 16.5885 19.2907 16.4161 19.201 16.2685H20.3447V13.8545H14.7028C14.5135 14.6268 13.8984 15.2332 13.1215 15.4101V17.542H15.1835V17.0497C15.1835 16.6189 15.534 16.2684 15.9648 16.2684H17.5328C17.4432 16.416 17.3905 16.5885 17.3905 16.7734C17.3905 16.9289 17.428 17.0754 17.4928 17.2059H16.121V19.2499H15.1835V18.4795H9.15615C9.04697 18.1759 8.9574 17.8629 8.88872 17.542H12.1839ZM13.8261 13.3523C13.8261 12.7052 13.2997 12.1789 12.6527 12.1789C12.0056 12.1789 11.4792 12.7052 11.4792 13.3523C11.4792 13.9994 12.0056 14.5257 12.6527 14.5257C13.2997 14.5257 13.8261 13.9994 13.8261 13.3523Z" fill="#0F9390"/>
<path id="Vector_19" d="M18.5847 10.0299C18.4149 10.0299 18.2552 10.0736 18.116 10.1501V8.96558C18.4382 9.05983 18.7513 9.17539 19.0535 9.31108V10.1501C18.9142 10.0736 18.7545 10.0299 18.5847 10.0299Z" fill="#0F9390"/>
</g>
<path id="Vector_20" d="M22.6731 19.1504C21.4949 21.6213 18.9741 23.3288 16.0543 23.3288C13.1345 23.3288 10.6138 21.6213 9.43559 19.1504H22.6731Z" fill="#C3DDF4"/>
<g id="Group_5">
<path id="Vector_21" d="M18.5842 12.0452C18.0104 12.0452 17.5453 11.58 17.5453 11.0062C17.5453 10.4324 18.0104 9.96729 18.5842 9.96729C19.158 9.96729 19.6232 10.4324 19.6232 11.0062C19.6232 11.58 19.158 12.0452 18.5842 12.0452Z" fill="#FE3745"/>
<path id="Vector_22" d="M18.3668 17.8127C17.793 17.8127 17.3279 17.3476 17.3279 16.7738C17.3279 16.2 17.793 15.7349 18.3668 15.7349C18.9406 15.7349 19.4058 16.2 19.4058 16.7738C19.4058 17.3476 18.9406 17.8127 18.3668 17.8127Z" fill="#FE3745"/>
<path id="Vector_23" d="M16.0543 6.75C21.1629 6.75 25.3043 10.8913 25.3043 16C25.3043 21.1087 21.1629 25.25 16.0543 25.25C10.9456 25.25 6.80426 21.1087 6.80426 16C6.80426 10.8913 10.9456 6.75 16.0543 6.75ZM16.0543 23.2038C20.0329 23.2038 23.2581 19.9786 23.2581 16C23.2581 12.0214 20.0329 8.79619 16.0543 8.79619C12.0757 8.79619 8.85051 12.0214 8.85051 16C8.85051 19.9786 12.0757 23.2038 16.0543 23.2038Z" fill="#FE3745"/>
</g>
<path id="Vector_24" d="M23.9999 16C23.9999 11.1106 20.2064 7.10794 15.4021 6.77319C15.6176 6.75819 15.835 6.75 16.0543 6.75C21.1629 6.75 25.3043 10.8913 25.3043 16C25.3043 21.1087 21.1629 25.25 16.0543 25.25C15.835 25.25 15.6176 25.2418 15.4021 25.2268C20.2064 24.8921 23.9999 20.8894 23.9999 16Z" fill="#EA2A3D"/>
<path id="Vector_25" d="M18.3438 30.5625C19.1192 30.5625 19.75 29.9317 19.75 29.1562C19.75 28.3808 19.1192 27.75 18.3438 27.75H13.6562C12.8808 27.75 12.25 28.3808 12.25 29.1562C12.25 29.9317 12.8808 30.5625 13.6562 30.5625H18.3438Z" fill="#293D7C"/>
<path id="Vector_26" d="M12.875 29.1562C12.875 29.5877 13.2248 29.9375 13.6562 29.9375H18.3438C18.7752 29.9375 19.125 29.5877 19.125 29.1562C19.125 28.7248 18.7752 28.375 18.3438 28.375H13.6562C13.2248 28.375 12.875 28.7248 12.875 29.1562Z" fill="#9CE2D8"/>
<path id="Vector_27" d="M15.1875 28.375H18.3438C18.7752 28.375 19.125 28.7248 19.125 29.1562C19.125 29.5877 18.7752 29.9375 18.3438 29.9375H15.1875V28.375Z" fill="#FFCA51"/>
<g id="Group_6">
<path id="Vector_28" d="M19.7906 20.8787C19.5134 20.8787 19.2887 20.6541 19.2887 20.3769C19.2887 20.0997 19.5134 19.875 19.7906 19.875C20.0678 19.875 20.2925 20.0997 20.2925 20.3769C20.2925 20.6541 20.0678 20.8787 19.7906 20.8787Z" fill="#445EA0"/>
<path id="Vector_29" d="M17.75 20.8787C17.4728 20.8787 17.2481 20.6541 17.2481 20.3769C17.2481 20.0997 17.4728 19.875 17.75 19.875C18.0271 19.875 18.2518 20.0997 18.2518 20.3769C18.2518 20.6541 18.0271 20.8787 17.75 20.8787Z" fill="#445EA0"/>
<path id="Vector_30" d="M15.71 20.8787C15.4329 20.8787 15.2082 20.6541 15.2082 20.3769C15.2082 20.0997 15.4329 19.875 15.71 19.875C15.9872 19.875 16.2119 20.0997 16.2119 20.3769C16.2119 20.6541 15.9872 20.8787 15.71 20.8787Z" fill="#445EA0"/>
</g>
<path id="Vector_31" d="M3.61098 20.5189C3.73092 20.5189 3.85092 20.4732 3.94242 20.3817C4.12548 20.1986 4.12548 19.9018 3.94242 19.7188C1.89192 17.6683 1.89192 14.3318 3.94242 12.2813C4.12548 12.0982 4.12548 11.8014 3.94242 11.6184C3.75935 11.4353 3.46254 11.4353 3.27948 11.6184C0.863427 14.0344 0.863427 17.9657 3.27948 20.3818C3.3711 20.4731 3.49104 20.5189 3.61098 20.5189Z" fill="#EEF6FF"/>
<path id="Vector_32" d="M4.77492 19.3551C4.89486 19.3551 5.01486 19.3093 5.10636 19.2178C5.28942 19.0347 5.28942 18.7379 5.10636 18.5548C3.6976 17.146 3.6976 14.8538 5.10636 13.445C5.28942 13.2619 5.28942 12.9651 5.10636 12.7821C4.92329 12.599 4.62648 12.599 4.44348 12.7821C2.66916 14.5564 2.66916 17.4434 4.44348 19.2177C4.53498 19.3093 4.65498 19.3551 4.77492 19.3551Z" fill="#C3DDF4"/>
<path id="Vector_33" d="M5.93874 18.1912C6.05867 18.1912 6.17867 18.1454 6.27017 18.0539C6.45324 17.8708 6.45324 17.574 6.27017 17.391C5.89861 17.0195 5.69399 16.5254 5.69399 16C5.69399 15.4745 5.89861 14.9805 6.27017 14.6089C6.45324 14.4258 6.45324 14.129 6.27017 13.946C6.08711 13.763 5.7903 13.763 5.60724 13.946C5.05861 14.4946 4.75642 15.2241 4.75642 16C4.75642 16.7759 5.05855 17.5053 5.60724 18.0539C5.6988 18.1454 5.8188 18.1912 5.93874 18.1912Z" fill="#94C2ED"/>
<path id="Vector_34" d="M28.3887 20.5191C28.5087 20.5191 28.6287 20.4733 28.7202 20.3818C29.8888 19.2131 30.5325 17.657 30.5325 16.0002C30.5325 14.3432 29.8888 12.7872 28.7202 11.6185C28.5371 11.4354 28.2403 11.4354 28.0573 11.6185C27.8742 11.8016 27.8742 12.0984 28.0573 12.2814C30.1078 14.332 30.1078 17.6684 28.0573 19.7189C27.8742 19.902 27.8742 20.1988 28.0573 20.3818C28.1488 20.4732 28.2687 20.5191 28.3887 20.5191Z" fill="#EEF6FF"/>
<path id="Vector_35" d="M27.2248 19.3552C27.3448 19.3552 27.4647 19.3094 27.5562 19.2178C29.3305 17.4436 29.3305 14.5566 27.5562 12.7822C27.3732 12.5992 27.0764 12.5991 26.8934 12.7822C26.7103 12.9653 26.7103 13.262 26.8934 13.4451C28.3021 14.8539 28.3021 17.1462 26.8934 18.5549C26.7103 18.738 26.7103 19.0348 26.8934 19.2178C26.9849 19.3093 27.1049 19.3552 27.2248 19.3552Z" fill="#C3DDF4"/>
<path id="Vector_36" d="M26.061 18.1913C26.1809 18.1913 26.3009 18.1457 26.3924 18.0541C27.525 16.9215 27.525 15.0787 26.3924 13.9462C26.2093 13.7631 25.9125 13.763 25.7295 13.9462C25.5465 14.1292 25.5465 14.426 25.7295 14.609C26.4965 15.376 26.4965 16.6241 25.7295 17.3912C25.5465 17.5742 25.5465 17.871 25.7295 18.0541C25.821 18.1455 25.941 18.1913 26.061 18.1913Z" fill="#94C2ED"/>
</g>
</svg>
