<svg width="32" height="32" viewBox="0 0 32 32" fill="none" xmlns="http://www.w3.org/2000/svg">
<g id="sofa 1">
<g id="Retro Sofa">
<path id="Vector" d="M7.5 25H4.5V27.5H7.5V25Z" fill="#7C7D98"/>
<path id="Vector_2" d="M27.5 25H24.5V27.5H27.5V25Z" fill="#7C7D98"/>
<path id="Vector_3" d="M27.5 27.5C27.5 27.5 27.0391 27 26 27C24.9609 27 24.5 27.5 24.5 27.5V26H27.5V27.5Z" fill="#2E305E"/>
<path id="Vector_4" d="M7.5 27.5C7.5 27.5 7.03911 27 6 27C4.96089 27 4.5 27.5 4.5 27.5V26H7.5V27.5Z" fill="#2E305E"/>
<path id="Vector_5" d="M21.5 4.5H10.5C8.9087 4.5 7.38258 5.13214 6.25736 6.25736C5.13214 7.38258 4.5 8.9087 4.5 10.5V20.5H27.5V10.5C27.5 8.9087 26.8679 7.38258 25.7426 6.25736C24.6174 5.13214 23.0913 4.5 21.5 4.5Z" fill="#F88F19"/>
<path id="Vector_6" d="M19.5 5.5H12.5C11.1739 5.5 9.90215 6.02678 8.96447 6.96447C8.02678 7.90215 7.5 9.17392 7.5 10.5V21H24.5V10.5C24.5 9.17392 23.9732 7.90215 23.0355 6.96447C22.0979 6.02678 20.8261 5.5 19.5 5.5Z" fill="#F06000"/>
<path id="Vector_7" d="M4.50513 11H6.00512C7.06599 11 8.08341 11.4214 8.83355 12.1716C9.5837 12.9217 10.0051 13.9391 10.0051 15V20.5H21.995V15C21.995 13.9391 22.4164 12.9217 23.1666 12.1716C23.9167 11.4214 24.9341 11 25.995 11H27.495C28.3753 10.9995 29.2312 11.2896 29.9298 11.8253C30.6284 12.361 31.1307 13.1123 31.3587 13.9626C31.5866 14.8129 31.5275 15.7147 31.1905 16.528C30.8535 17.3413 30.2575 18.0206 29.495 18.4605V24C29.495 24.5304 29.2843 25.0391 28.9092 25.4142C28.5341 25.7893 28.0254 26 27.495 26H4.50513C3.97469 26 3.46598 25.7893 3.09091 25.4142C2.71584 25.0391 2.50513 24.5304 2.50513 24V18.4605C1.74258 18.0206 1.14657 17.3413 0.809593 16.528C0.472616 15.7147 0.413515 14.8129 0.641468 13.9626C0.869419 13.1123 1.37167 12.361 2.07028 11.8253C2.76889 11.2896 3.62478 10.9995 4.50513 11Z" fill="#F06000"/>
<path id="Vector_8" d="M12 5H19.5C21.5 5 23 7 23 9C23 11 21.5 13 19.5 13H12C12 13 13.5 11.5 13.5 9C13.5 6.5 12 5 12 5Z" fill="#F88F19"/>
<path id="Vector_9" d="M12 9.5C12 9.5 13 10.5 16 10.5C19 10.5 20 9.5 20 9.5H12Z" fill="#FCAA40"/>
<path id="Vector_10" d="M21.5 16.5H10.5C9.96957 16.5 9.46086 16.7107 9.08579 17.0858C8.71071 17.4609 8.5 17.9696 8.5 18.5V20H23.5V18.5C23.5 17.9696 23.2893 17.4609 22.9142 17.0858C22.5391 16.7107 22.0304 16.5 21.5 16.5Z" fill="#F88F19"/>
<path id="Vector_11" d="M21 16.5C21 16.5 20 18 16 18C12 18 11 16.5 11 16.5H21Z" fill="#FFC263"/>
<path id="Vector_12" d="M23 26V20C23 20 22 21 22 23C22 25 23 26 23 26Z" fill="#F4791A"/>
<path id="Vector_13" d="M8.5 20V26C8.5 26 7.5 25 7.5 23C7.5 21 8.5 20 8.5 20Z" fill="#F4791A"/>
<g id="Group">
<path id="Vector_14" d="M23.5 15L23.5 15.5H22V15C22.0328 12.8192 23.8063 11 25.9949 11H27.4949L27.496 11.0001C27.4105 11.0007 23.5 11 23.5 15Z" fill="#FCAA40"/>
<path id="Vector_15" d="M8.49586 15L8.49988 15.5H9.99988L9.99588 15C9.96304 12.8192 8.18957 11 6.00094 11H4.50094L4.49987 11.0001C4.58536 11.0007 8.49586 11 8.49586 15Z" fill="#FCAA40"/>
</g>
</g>
</g>
</svg>
